<svg xmlns="http://www.w3.org/2000/svg" width="483" height="254" viewBox="0 0 483 254"><title>Group</title><g fill="#fff" fill-rule="evenodd"><path d="M410.46 220.917c-.3-.15-.59-.29-.884-.435-.123.11-.202.21-.298.317a13 13 0 0 1-2.436 2.066c-.868.574-1.801.965-2.77 1.134-.792.142-1.463.126-2.009-.076a3.14 3.14 0 0 1-1.359-.97c-.36-.443-.633-1.009-.796-1.656a8.7 8.7 0 0 1-.273-2.143c0-1.32.273-2.653.777-3.956a16.5 16.5 0 0 1 2.03-3.709c.118-.16.233-.325.35-.478-.35-.208-.701-.39-1.042-.59-.082.082-.183.15-.292.235a23.6 23.6 0 0 0-2.366 2.306c-.729.84-1.4 1.738-1.951 2.673-.54.945-.977 1.956-1.302 2.956a10.7 10.7 0 0 0-.47 3.192q-.001 1.53.434 2.744c0 .01 0 .01.011.019-.302.355-.594.691-.927.984a8 8 0 0 1-1.187.877c-.399.213-.797.377-1.207.429-.447.09-.805-.033-1.135-.34-.38-.376-.712-.887-.988-1.546a12 12 0 0 1-.717-2.336 37 37 0 0 1-.494-2.694c-.131-.891-.24-1.75-.333-2.545a23 23 0 0 0-.27-2 4 4 0 0 0-.161-.628 1.65 1.65 0 0 0-.344-.653 1.7 1.7 0 0 0-.584-.446 1.77 1.77 0 0 0-.922-.08 2.9 2.9 0 0 0-1.474.714 9.5 9.5 0 0 0-.98 1.107c-.64.82-1.268 1.833-1.885 3.014a41 41 0 0 0-1.673 3.602 46 46 0 0 0-1.332 3.675 1.5 1.5 0 0 0-.122.36 67 67 0 0 1-.131-4.096 35.2 35.2 0 0 1 .65-7.132c.06-.298-.05-.552-.274-.68a1 1 0 0 0-.458-.142c-.131-.008-.298 0-.448.019l-.25.033a5.4 5.4 0 0 0-1.368.41 3.878 3.878 0 0 0-2.008 2.025c-.2.461-.298.972-.298 1.557 0 2.066.098 4.165.309 6.214.062.82.193 1.637.332 2.476a13 13 0 0 1-2.284 1.825c-.886.536-1.814.891-2.783 1.028-.805.12-1.479.06-2.02-.156a3.34 3.34 0 0 1-1.358-1.022c-.363-.465-.63-1.028-.8-1.68a8.2 8.2 0 0 1-.278-2.16c0-1.311.267-2.634.778-3.926.529-1.301 1.214-2.525 2.052-3.635.112-.158.229-.308.344-.459-.344-.207-.694-.437-1.051-.628-.087.068-.191.158-.287.232a23 23 0 0 0-2.382 2.2 17.8 17.8 0 0 0-1.951 2.604 12.5 12.5 0 0 0-1.304 2.913 10.1 10.1 0 0 0-.489 3.162c0 1.022.153 1.964.44 2.779.3.825.742 1.533 1.31 2.104.567.582 1.276.997 2.111 1.249.835.235 1.804.3 2.866.15a9.6 9.6 0 0 0 2.472-.73 12.4 12.4 0 0 0 2.257-1.363 14 14 0 0 0 1.926-1.831c.265-.312.505-.615.732-.94.147.732.273 1.465.453 2.208.087.453.275.85.502 1.194.213.29.627.618 1.432.492a2 2 0 0 0 1.043-.476c.28-.21.524-.489.731-.795.194-.279.35-.59.48-.904.126-.326.232-.645.287-.9.278-1.194.65-2.423 1.086-3.65.445-1.23.906-2.408 1.405-3.495a31 31 0 0 1 1.43-2.85c.15-.252.292-.473.396-.664.052.437.098.893.144 1.341.085.935.216 1.9.402 2.829.166.937.406 1.88.687 2.779.284.929.674 1.735 1.15 2.415.488.705 1.085 1.236 1.773 1.593.723.372 1.59.484 2.579.328a6.8 6.8 0 0 0 2.278-.833 8.4 8.4 0 0 0 1.76-1.473c.399-.456.778-.975 1.124-1.522l.006.016c.016-.016.022-.032.038-.057.145.224.303.41.48.582.565.544 1.277.94 2.113 1.153.826.227 1.787.232 2.848.047a9 9 0 0 0 2.462-.82c.8-.394 1.552-.88 2.24-1.451a16 16 0 0 0 1.921-1.902 13.3 13.3 0 0 0 1.523-2.246 4 4 0 0 1 .25-.462m-7.899-14.877c.202-.45.292-.901.292-1.333 0-.585-.18-1.036-.573-1.358-.388-.3-.879-.424-1.474-.3-.433.065-.846.25-1.252.527-.366.27-.707.582-1.007.934-.297.372-.535.76-.723 1.197a3.2 3.2 0 0 0-.279 1.32c0 .593.189 1.068.53 1.407.39.33.879.457 1.484.356.44-.085.865-.282 1.27-.56.384-.271.739-.594 1.028-.968.3-.374.54-.776.704-1.222m-34.006 5.518c.201-.446.283-.883.283-1.32 0-.588-.182-1.05-.567-1.367-.388-.33-.873-.461-1.482-.377a3.3 3.3 0 0 0-1.266.49 5 5 0 0 0-1.007.896c-.29.35-.53.751-.72 1.156a3.4 3.4 0 0 0-.284 1.314c0 .59.183 1.077.54 1.421.38.366.879.503 1.487.424a3 3 0 0 0 1.27-.506c.387-.262.736-.58 1.03-.937.295-.353.54-.749.716-1.194m-12.741 18.73c.308-.359.625-.752.938-1.17a17 17 0 0 0 1.338-2.105c.4-.732.73-1.486.985-2.235.262-.773.384-1.53.384-2.268 0-.749-.133-1.462-.444-2.137a5.2 5.2 0 0 0-1.196-1.773 5.2 5.2 0 0 0-1.784-1.15c-.688-.274-1.444-.361-2.24-.26a5.14 5.14 0 0 0-2.751 1.237q-1.128.973-2.069 2.372a25 25 0 0 0-1.58 2.801 16.4 16.4 0 0 0-1.116 3.1 25.5 25.5 0 0 1-1.042 3.224 13.3 13.3 0 0 1-1.714 3.066c-.095.128-.185.267-.286.393.308.273.605.544.911.814.117-.106.24-.224.36-.322 1.348-1.246 2.26-2.287 2.77-3.189.491-.853.892-1.754 1.165-2.648.279-.85.56-1.648.879-2.38.28-.7.622-1.328.99-1.847.38-.525.75-.957 1.147-1.274a2.24 2.24 0 0 1 1.187-.513c.343-.033.635.005.892.175.29.185.546.42.72.735.219.317.377.691.483 1.09.096.415.148.795.148 1.167 0 .724-.175 1.484-.54 2.279-.364.841-.795 1.62-1.256 2.342-.467.721-.903 1.33-1.272 1.817-.616.79-.72.989-.72 1.213 0 .254.104.467.29.612.095.06.177.129.256.186.98.44 1.795.918 2.464 1.4a6.7 6.7 0 0 1 1.654 1.641q.631.91.925 2.143c.188.811.283 1.792.283 2.916 0 .866-.1 1.748-.322 2.64a8.3 8.3 0 0 1-1.028 2.44 6.4 6.4 0 0 1-1.766 1.863c-.701.5-1.558.84-2.554.943-.647.074-1.179.055-1.58-.082a5.2 5.2 0 0 1-1.13-.511c-.354-.205-.657-.39-.928-.563a1.64 1.64 0 0 0-1.181-.29 2 2 0 0 0-.972.377c-.376.271-.578.67-.578 1.129 0 .418.142.984.849 1.38q.688.385 1.596.566a8.8 8.8 0 0 0 1.782.194c.606.01 1.072 0 1.4-.044 1.694-.205 3.239-.661 4.603-1.38a12.2 12.2 0 0 0 3.471-2.73 11.6 11.6 0 0 0 2.164-3.752c.483-1.404.748-2.905.748-4.473 0-2.265-.53-4.23-1.575-5.864-.957-1.457-2.344-2.566-4.158-3.296m-16.807 2.006q.45-.522.93-1.15a16 16 0 0 0 1.346-2.086c.4-.726.723-1.478.974-2.221.248-.757.39-1.52.39-2.25 0-.748-.153-1.47-.434-2.16a6 6 0 0 0-1.198-1.793 5.5 5.5 0 0 0-1.792-1.186c-.696-.287-1.452-.372-2.24-.293a5 5 0 0 0-2.762 1.184 11.2 11.2 0 0 0-2.074 2.344 26 26 0 0 0-1.583 2.766c-.467.937-.835 1.97-1.11 3.071a25 25 0 0 1-1.043 3.208c-.232.571-.549 1.175-.969 1.87l-.032.024c-.18.142-.353.284-.54.41a4.9 4.9 0 0 1-2.22.762c-.643.066-1.167.014-1.563-.156-.38-.169-.682-.41-.906-.732a3.3 3.3 0 0 1-.475-1.26 9 9 0 0 1-.163-1.713c0-.598.046-1.216.125-1.847.082-.626.23-1.227.415-1.826.04-.134.084-.26.12-.393-.35-.186-.712-.358-1.053-.541l-.298.341a21 21 0 0 0-1.135 1.645 18 18 0 0 0-.941 1.894c-.27.656-.505 1.34-.683 2.017a7.7 7.7 0 0 0-.275 1.689c-.44.338-.895.63-1.367.86a4.7 4.7 0 0 1-1.646.462q-.787.07-1.241-.186a1.8 1.8 0 0 1-.745-.718 3.8 3.8 0 0 1-.42-1.15 8 8 0 0 1-.12-1.405c0-.689.1-1.47.351-2.353.246-.896.584-1.735 1.037-2.533a7.8 7.8 0 0 1 1.616-2.011c.605-.525 1.274-.81 2.024-.878.32-.04.606-.016.846.05.254.065.497.136.685.224.208.106.401.205.612.287.25.112.502.169.755.153.339-.041.636-.192.88-.465.223-.276.351-.58.351-.913 0-.423-.139-.798-.417-1.054a2.1 2.1 0 0 0-.863-.503 4.3 4.3 0 0 0-.941-.183 7 7 0 0 0-.819 0 7.9 7.9 0 0 0-2.69.746c-.857.407-1.684.945-2.47 1.582a15 15 0 0 0-2.12 2.175 15 15 0 0 0-1.681 2.536c-.47.88-.849 1.776-1.124 2.694-.26.91-.407 1.81-.407 2.645 0 .569.098 1.118.226 1.654-.166.15-.33.32-.518.445-.655.492-1.454.768-2.341.82-.617.052-1.12 0-1.498-.156a2 2 0 0 1-.876-.672c-.221-.312-.38-.713-.462-1.186a8.6 8.6 0 0 1-.15-1.7c0-.732.082-1.467.232-2.221.153-.782.322-1.536.508-2.238.109-.255.177-.525.23-.796.065-.273.086-.552.086-.836 0-.647-.196-1.14-.573-1.51-.333-.32-.775-.567-1.31-.733a6.8 6.8 0 0 0-1.65-.27c-.576-.036-1.141-.072-1.72-.107-.567-.028-1.107-.085-1.612-.137-.456-.057-.833-.145-1.108-.29a1.3 1.3 0 0 1-.445-.401 8 8 0 0 1-.347-.602 2.8 2.8 0 0 0-.472-.647c-.163-.164-.477-.36-.974-.323-.633.03-1.154.252-1.574.637-.44.418-.663.96-.663 1.61 0 .341.046.675.125 1.002.076.301.147.61.232.908.076.32.145.642.224.975.065.304.087.659.087 1.011 0 .735-.082 1.528-.235 2.375a19.5 19.5 0 0 1-.69 2.552c-.297.853-.66 1.678-1.061 2.451-.418.771-.885 1.449-1.368 2.012a6 6 0 0 1-.327.382q.47.438.939.872c.112-.104.237-.194.349-.29a17.3 17.3 0 0 0 2.45-2.478 19.5 19.5 0 0 0 2.052-3.03 18 18 0 0 0 1.384-3.34c.256-.817.417-1.61.51-2.405l.058.025c.324.158.646.295 1.004.396.35.126.693.208 1.045.284.273.066.524.131.731.178 0 .022-.087.33-.103.456-.216.749-.36 1.525-.475 2.323-.11.8-.175 1.577-.175 2.304 0 .967.11 1.874.314 2.724.215.872.562 1.62 1.045 2.252.497.642 1.146 1.131 1.93 1.484.785.325 1.748.464 2.862.388a5.9 5.9 0 0 0 1.907-.511 9.2 9.2 0 0 0 1.9-1.132c.412-.322.802-.713 1.197-1.142 0 .01.006.03.017.044l.04-.033q.166.281.372.503c.44.483.993.858 1.634 1.11.647.262 1.39.357 2.216.292a6.64 6.64 0 0 0 3.144-1.09 12.3 12.3 0 0 0 2.044-1.597c.278.593.676 1.09 1.165 1.509.72.57 1.643.822 2.745.732a7.4 7.4 0 0 0 2.306-.65 10.6 10.6 0 0 0 2.131-1.356q.987-.824 1.807-1.776c.043-.065.1-.131.188-.262.851-.839 1.457-1.574 1.836-2.233.503-.86.885-1.743 1.166-2.628.286-.848.564-1.63.87-2.367.29-.702.63-1.314 1.01-1.834.363-.513.745-.934 1.149-1.246.346-.284.72-.453 1.173-.5.347-.024.636.041.892.192.295.188.552.442.745.757.194.325.363.702.461 1.104.107.401.156.8.156 1.172 0 .721-.175 1.473-.532 2.268a16.4 16.4 0 0 1-1.28 2.3 25 25 0 0 1-1.269 1.804c-.608.774-.718.976-.718 1.197 0 .265.11.476.298.618.085.065.18.136.26.2.96.453 1.797.931 2.477 1.442a6.8 6.8 0 0 1 1.629 1.672c.426.61.742 1.342.928 2.143.19.833.3 1.82.3 2.932 0 .863-.11 1.749-.341 2.64a8.3 8.3 0 0 1-1.018 2.413c-.447.726-1.045 1.333-1.768 1.841-.685.487-1.561.787-2.574.894-.638.063-1.162.03-1.566-.12a5.6 5.6 0 0 1-1.143-.517c-.341-.218-.65-.412-.92-.615-.38-.226-.764-.333-1.184-.29a2 2 0 0 0-.983.37 1.32 1.32 0 0 0-.562 1.115c0 .396.137.978.84 1.385.465.27 1 .473 1.608.596a10 10 0 0 0 1.785.237c.603.02 1.067.02 1.4-.03 1.691-.174 3.244-.598 4.609-1.292a11.7 11.7 0 0 0 3.468-2.654 11.1 11.1 0 0 0 2.175-3.73c.496-1.38.753-2.874.753-4.446 0-2.262-.535-4.235-1.591-5.894-.944-1.48-2.339-2.607-4.145-3.37m-51.951 3.255c.445-1.128.65-2.374.65-3.675 0-.83-.129-1.697-.372-2.588a8.2 8.2 0 0 0-1.108-2.448 6.1 6.1 0 0 0-1.885-1.804c-.775-.486-1.692-.702-2.696-.653-.32.003-.696.099-1.092.246a4.8 4.8 0 0 0-1.143.588c-.369.251-.677.53-.953.844-.31.369-.469.779-.469 1.243 0 .268.093.511.251.716.158.159.311.284.494.361.14.063.297.126.477.164.17.052.325.087.407.087.281.069.573.137.851.197.24.052.48.145.732.243q.69.323 1.28.826a5.3 5.3 0 0 1 1.01 1.142c.283.407.496.869.662 1.36.142.493.23.993.23 1.515s-.12 1.019-.33 1.51a4.9 4.9 0 0 1-.857 1.356 4.4 4.4 0 0 1-1.264.967 3.54 3.54 0 0 1-1.5.397c-.877.035-1.635-.14-2.301-.525a5.1 5.1 0 0 1-1.722-1.588 6.9 6.9 0 0 1-1.078-2.227 8.8 8.8 0 0 1-.368-2.448c0-1.115.213-2.18.592-3.178a11.6 11.6 0 0 1 1.694-2.834c.123-.128.252-.273.355-.413-.335-.256-.701-.489-1.04-.743-.09.068-.193.134-.302.21a15.7 15.7 0 0 0-2.153 1.744 11.2 11.2 0 0 0-1.747 2.118 10.2 10.2 0 0 0-1.154 2.448 9.5 9.5 0 0 0-.407 2.768c0 1.143.18 2.233.532 3.225.366 1.003.88 1.88 1.58 2.623a7.5 7.5 0 0 0 2.497 1.73c.96.399 2.055.585 3.256.53 1.329-.044 2.565-.339 3.673-.863a9.4 9.4 0 0 0 2.87-2.096 9.3 9.3 0 0 0 1.848-3.075m-13.208-19.69c.494-1.2.764-2.504.764-3.84q0-2.168-.69-3.831c-.453-1.107-1.108-2.05-1.962-2.81-.846-.737-1.864-1.303-3.032-1.677-1.179-.361-2.456-.528-3.861-.484-2.21.063-4.287.544-6.21 1.443a19.2 19.2 0 0 0-5.194 3.555c-1.541 1.46-2.925 3.173-4.115 5.077a35.3 35.3 0 0 0-3.012 6.012 36.8 36.8 0 0 0-1.856 6.419 33 33 0 0 0-.625 6.263c0 1.525.12 3.055.347 4.564.25 1.505.6 2.973 1.105 4.36a20 20 0 0 0 1.872 3.895c.742 1.2 1.667 2.26 2.72 3.142a11.7 11.7 0 0 0 3.58 2.074c1.349.487 2.877.716 4.53.7 1.253-.03 2.527-.325 3.788-.89a14.2 14.2 0 0 0 3.417-2.182 15 15 0 0 0 2.715-3.025c.756-1.139 1.312-2.311 1.626-3.486.041-.12.085-.265.112-.4-.377-.169-.764-.35-1.132-.519-.082.14-.161.276-.232.424-.434.768-.98 1.528-1.575 2.26a12 12 0 0 1-2.052 1.99 10.7 10.7 0 0 1-2.407 1.42 6.9 6.9 0 0 1-2.6.566c-1.324.016-2.514-.17-3.542-.607a8.2 8.2 0 0 1-2.721-1.74 11 11 0 0 1-2.044-2.676 16.8 16.8 0 0 1-1.402-3.35c-.38-1.2-.634-2.46-.808-3.752a32 32 0 0 1-.249-3.891c0-1.585.12-3.34.399-5.211.256-1.864.68-3.766 1.236-5.63a36 36 0 0 1 2.11-5.405 20.2 20.2 0 0 1 3.026-4.566 14.1 14.1 0 0 1 3.981-3.208c1.468-.811 3.127-1.24 4.947-1.279.879-.024 1.67.082 2.306.32.641.227 1.193.58 1.602 1.038.431.449.753 1.03.971 1.686.221.69.333 1.449.333 2.307a11.3 11.3 0 0 1-1.01 4.64 15.3 15.3 0 0 1-2.72 4.063 16.5 16.5 0 0 1-3.902 3.02c-1.457.792-2.977 1.306-4.508 1.514-.147.035-.295.052-.461.076v.987c.062.177.123.336.174.508.167-.003.336-.003.516-.003 1.135-.019 2.35-.202 3.6-.516a22 22 0 0 0 3.71-1.301 20 20 0 0 0 3.472-2.041 17.2 17.2 0 0 0 2.928-2.717c.837-.989 1.53-2.1 2.035-3.287M233.44 237.45c.107-.16.218-.336.33-.483-.346-.183-.69-.35-1.031-.525-.09.06-.178.128-.254.197a11.1 11.1 0 0 1-3.294 1.811 10.4 10.4 0 0 1-3.694.624c-1.72-.036-3.1-.451-4.047-1.25-.824-.68-1.381-1.644-1.649-2.844h.028c.578.003 1.206-.025 1.899-.101.69-.052 1.4-.172 2.112-.347a12 12 0 0 0 2.071-.691c.672-.307 1.291-.667 1.818-1.132a5.4 5.4 0 0 0 1.337-1.623c.33-.634.526-1.383.526-2.222 0-.688-.141-1.32-.4-1.871a3.9 3.9 0 0 0-1.051-1.405 5 5 0 0 0-1.558-.869 6 6 0 0 0-1.867-.303 9.8 9.8 0 0 0-3.828.677 9.9 9.9 0 0 0-3.098 2.017 9.1 9.1 0 0 0-2.057 3.025c-.51 1.164-.764 2.435-.764 3.777 0 1.257.232 2.385.636 3.377-.009.011-.011.011-.022.016-.467.604-.974 1.044-1.534 1.323-.527.273-1.173.42-1.93.399-.714-.025-1.342-.281-1.898-.757-.609-.525-1.157-1.221-1.613-2.058q-.723-1.307-1.234-2.973a43 43 0 0 1-.824-3.159c1.166-.858 2.276-1.926 3.294-3.172 1.102-1.33 2.052-2.84 2.868-4.5.81-1.651 1.46-3.441 1.921-5.318.459-1.883.685-3.832.685-5.79 0-.733-.046-1.575-.166-2.504a11.1 11.1 0 0 0-.729-2.749 6.6 6.6 0 0 0-1.517-2.257c-.685-.661-1.58-1.017-2.658-1.05-1.212-.038-2.314.268-3.256.94-.9.629-1.71 1.493-2.4 2.556-.661 1.052-1.237 2.265-1.712 3.65a34 34 0 0 0-1.135 4.2 44 44 0 0 0-.628 4.296c-.112 1.426-.183 2.746-.183 3.927 0 .978.08 2.131.208 3.435.134 1.317.352 2.705.65 4.118a38 38 0 0 0 1.14 4.214c.26.778.546 1.472.879 2.175-.341-.186-.688-.364-1.032-.558a2 2 0 0 0-.254.205 10.4 10.4 0 0 1-3.28 1.694c-1.2.391-2.437.555-3.697.492-1.733-.082-3.097-.544-4.058-1.385-.819-.697-1.367-1.67-1.632-2.897h.02c.583.03 1.216.03 1.904-.022.674-.043 1.397-.139 2.11-.284.72-.156 1.41-.363 2.06-.631a6.8 6.8 0 0 0 1.833-1.055 5.2 5.2 0 0 0 1.327-1.582c.343-.629.515-1.385.515-2.2 0-.697-.133-1.328-.382-1.893a4.2 4.2 0 0 0-1.067-1.44 4.8 4.8 0 0 0-1.558-.919 6 6 0 0 0-1.855-.366 9.5 9.5 0 0 0-3.815.55c-1.187.456-2.23 1.087-3.095 1.907-.876.814-1.569 1.825-2.076 2.96-.5 1.147-.75 2.407-.75 3.76 0 1.341.234 2.56.698 3.604-.197.128-.382.254-.57.363a4.27 4.27 0 0 1-2.164.46c-.672-.047-1.212-.195-1.591-.449a2.75 2.75 0 0 1-.904-.995 4.5 4.5 0 0 1-.453-1.45 16 16 0 0 1-.103-1.807c0-1.394.128-2.801.393-4.222a37 37 0 0 1 1.01-4.137c.032-.104.057-.221.092-.328l-.98-.817-.319.347a14.3 14.3 0 0 0-1.67 2.293 20 20 0 0 0-1.449 2.79c-.415.983-.758 1.989-1.012 2.986a11.4 11.4 0 0 0-.393 2.872c0 .233.008.462.03.675.008.107.016.23.035.347a6.5 6.5 0 0 1-1.225.528 4.2 4.2 0 0 1-1.56.15c-.618-.038-1.098-.227-1.474-.552a4.1 4.1 0 0 1-1-1.276c-.267-.522-.444-1.104-.57-1.71a8.7 8.7 0 0 1-.174-1.725c0-1.273.21-2.536.641-3.744a12.6 12.6 0 0 1 1.73-3.287c.09-.126.189-.251.284-.38-.338-.273-.688-.563-1.018-.836-.1.063-.196.128-.308.191-.78.517-1.54 1.107-2.216 1.796a11.8 11.8 0 0 0-1.782 2.27 11 11 0 0 0-1.179 2.637c-.28.938-.42 1.927-.42 2.933 0 .899.131 1.781.382 2.593q.018.067.052.13c-.32.315-.68.605-1.045.837-.38.24-.783.437-1.198.566a2.9 2.9 0 0 1-1.206.14c-.44-.03-.827-.252-1.155-.654-.387-.467-.728-1.082-.998-1.798-.3-.749-.535-1.604-.726-2.506a48 48 0 0 1-.494-2.828 75 75 0 0 1-.33-2.64 35 35 0 0 0-.273-2.06 4 4 0 0 0-.167-.672 2.2 2.2 0 0 0-.34-.733 2.5 2.5 0 0 0-.593-.604 2 2 0 0 0-.93-.306c-.573-.065-1.076.05-1.471.32a6.7 6.7 0 0 0-.999.85c-.65.67-1.283 1.525-1.88 2.533a27.5 27.5 0 0 0-1.687 3.178 31 31 0 0 0-1.356 3.331c-.038.115-.079.219-.12.323a78 78 0 0 1-.142-4.13c-.005-2.366.21-4.713.666-6.96.066-.273-.046-.56-.276-.748-.117-.115-.275-.189-.458-.254a2 2 0 0 0-.453-.101l-.256-.03a5.3 5.3 0 0 0-1.373.051c-.453.099-.868.265-1.203.522-.342.249-.606.58-.814 1q-.298.614-.297 1.47c0 2.077.098 4.192.308 6.305.08.82.21 1.68.341 2.541a6.2 6.2 0 0 1-1.776 1.192 4.27 4.27 0 0 1-2.21.311c-.639-.068-1.168-.227-1.559-.478a2.6 2.6 0 0 1-.903-.91 4.5 4.5 0 0 1-.491-1.361 10 10 0 0 1-.147-1.738c0-.62.035-1.216.122-1.825.093-.601.23-1.186.41-1.738.04-.126.09-.243.13-.37-.36-.256-.711-.51-1.063-.759a10 10 0 0 1-.287.279c-.396.407-.77.88-1.13 1.402-.36.54-.671 1.112-.95 1.719-.272.609-.507 1.235-.684 1.866a7.5 7.5 0 0 0-.287 1.648c-.434.232-.87.437-1.345.57a3.9 3.9 0 0 1-1.654.13c-.507-.064-.917-.214-1.23-.424a2.8 2.8 0 0 1-.737-.883 4 4 0 0 1-.412-1.23 8 8 0 0 1-.129-1.434c0-.686.12-1.443.352-2.282.24-.839.59-1.615 1.03-2.323.441-.686.976-1.26 1.617-1.678.603-.415 1.261-.56 2.022-.467.314.03.598.112.838.213.265.115.497.254.688.386.21.128.398.265.606.401.259.164.504.268.761.304.322.027.639-.06.873-.295.227-.21.347-.5.347-.826 0-.44-.134-.83-.42-1.158a2.8 2.8 0 0 0-.85-.667 6.3 6.3 0 0 0-.954-.38 7 7 0 0 0-.808-.164 7.1 7.1 0 0 0-2.68.202 9.7 9.7 0 0 0-2.456 1.074 11.3 11.3 0 0 0-2.128 1.755c-.644.669-1.195 1.41-1.665 2.2a11.2 11.2 0 0 0-1.118 2.456 8.5 8.5 0 0 0-.41 2.569c0 .363.044.76.115 1.177h-.011c0 .02 0 .02.003.02-.052.065-.096.103-.145.147a5 5 0 0 1-1.048.823 4.9 4.9 0 0 1-1.211.5c-.404.12-.816.139-1.245.076-.453-.057-.838-.281-1.17-.702-.39-.487-.724-1.115-1.01-1.842a17 17 0 0 1-.71-2.558 33 33 0 0 1-.477-2.833c-.15-.94-.246-1.818-.333-2.646a26 26 0 0 0-.262-2.074 3.7 3.7 0 0 0-.213-.828 3.2 3.2 0 0 0-.423-.781 2.5 2.5 0 0 0-.641-.683 2 2 0 0 0-.928-.37c-.581-.076-1.061.036-1.454.348-.325.27-.628.61-.874 1.03-.49.825-.96 1.71-1.375 2.634-.415.935-.821 1.88-1.198 2.85q-.556 1.447-1.086 2.886c-.18.467-.352.93-.527 1.383-.1-.418-.18-.82-.259-1.238a52 52 0 0 1-.456-2.883c-.12-.986-.22-1.96-.335-2.924a74 74 0 0 0-.382-2.891 4.3 4.3 0 0 0-.669-1.653 2.3 2.3 0 0 0-1.607-1.039c-.54-.068-.982 0-1.329.246-.327.216-.603.61-.876 1.189-.434.97-.824 1.896-1.19 2.774a66 66 0 0 0-1.028 2.637c-.32.863-.623 1.738-.928 2.626-.066.2-.14.41-.205.625-.033-.273-.054-.532-.082-.79a51 51 0 0 1-.169-3.123c-.01-1.055 0-2.142.052-3.238.049-1.101.158-2.265.311-3.44.06-.282-.055-.582-.295-.787-.147-.096-.292-.2-.45-.257a2 2 0 0 0-.44-.12c-.087-.02-.166-.041-.242-.047-.996-.156-1.818-.01-2.434.448-.633.462-.972 1.28-.972 2.427 0 1.044.044 2.194.134 3.416.093 1.218.213 2.41.368 3.574.167 1.164.35 2.246.543 3.23.202 1.011.418 1.825.628 2.416q.239.697.6 1.251c.216.339.633.752 1.422.88.404.063.74.005 1.015-.161.246-.145.44-.36.592-.607q.202-.328.325-.743c.085-.23.164-.473.235-.702.297-.927.584-1.807.851-2.607.281-.796.557-1.574.83-2.326.278-.746.56-1.486.843-2.243.082-.178.153-.353.22-.547.045.405.077.787.121 1.164.11 1.028.24 1.99.39 2.924.153.932.347 1.842.557 2.722.224.896.513 1.803.87 2.667.082.191.17.388.268.607.125.235.267.448.428.67.161.218.369.406.579.573.254.2.554.311.876.372.425.062.8 0 1.113-.173.287-.158.524-.355.729-.617.19-.252.346-.514.524-.91.079-.191.166-.37.24-.558.37-.926.726-1.833 1.04-2.727.324-.874.643-1.721.96-2.552.314-.82.647-1.599.98-2.35.128-.238.248-.481.373-.735.129 1.033.279 2.057.434 3.08a27.6 27.6 0 0 0 1.054 4.336c.464 1.315 1.067 2.446 1.803 3.345.786.967 1.82 1.541 3.06 1.708a6 6 0 0 0 2.368-.131 6.4 6.4 0 0 0 1.967-.946 8 8 0 0 0 1.45-1.339c0 .006 0 .006.005.02.014-.033.038-.053.057-.083 0 0 0-.013.011-.013.188.41.396.809.674 1.164a5.9 5.9 0 0 0 1.61 1.445c.65.388 1.39.637 2.221.738a6.1 6.1 0 0 0 3.133-.443 9.6 9.6 0 0 0 2.033-1.191c.281.648.669 1.23 1.16 1.735.734.719 1.645 1.164 2.742 1.285a6 6 0 0 0 2.303-.173c.745-.2 1.463-.5 2.134-.918a8.8 8.8 0 0 0 1.799-1.426c.202-.186.365-.391.543-.604.136.749.259 1.484.439 2.252q.138.704.505 1.325c.207.341.627.776 1.438.858.376.044.734-.038 1.045-.208.278-.145.521-.35.734-.6.194-.241.352-.506.491-.799.14-.295.224-.565.273-.828a28 28 0 0 1 1.097-3.364 35 35 0 0 1 1.414-3.142c.49-.94.977-1.765 1.435-2.481.166-.219.29-.394.412-.555.046.464.085.918.128 1.374.09.965.221 1.946.407 2.932.177 1 .423 1.993.69 2.957a12 12 0 0 0 1.16 2.727 7.4 7.4 0 0 0 1.796 2.05c.725.552 1.596.877 2.592.964.846.069 1.605-.016 2.29-.243a5.9 5.9 0 0 0 1.77-1.014 7.7 7.7 0 0 0 1.226-1.339c0 .006.016.006.016.006.006-.033.033-.05.038-.09.11.172.194.36.306.508a6.3 6.3 0 0 0 1.935 1.648c.775.418 1.659.67 2.641.743 1.103.08 2.129-.087 3.03-.508a10 10 0 0 0 1.893-1.183c.306.623.728 1.2 1.242 1.702.723.708 1.642 1.112 2.742 1.18a6 6 0 0 0 2.295-.295 8.3 8.3 0 0 0 2.147-.989c.65-.415 1.237-.913 1.777-1.465 0 0 .014 0 .014.022.005-.024.016-.038.021-.046.339.467.677.888 1.051 1.21.835.738 1.842 1.307 2.95 1.7 1.105.39 2.306.61 3.553.678a9.6 9.6 0 0 0 2.704-.27 10.9 10.9 0 0 0 2.538-.944c.813-.398 1.569-.91 2.257-1.492a10.3 10.3 0 0 0 1.749-1.92c.109-.154.218-.301.333-.468.262.569.534 1.115.832 1.618.68 1.145 1.495 2.099 2.401 2.83.936.771 2.033 1.168 3.234 1.209 1.424.046 2.71-.295 3.828-1.003a6.8 6.8 0 0 0 2.214-2.282c.392.599.824 1.134 1.364 1.59a8.9 8.9 0 0 0 2.952 1.594c1.092.35 2.28.54 3.556.557.898.027 1.81-.117 2.702-.355a12 12 0 0 0 2.546-1.025 11.6 11.6 0 0 0 2.245-1.571 10.8 10.8 0 0 0 1.755-1.968m-43.612-5.465c-.049 0-.1-.016-.158-.016v-.11c0-.549.082-1.194.207-1.902a8.6 8.6 0 0 1 .707-2 4.8 4.8 0 0 1 1.206-1.525c.45-.358.99-.53 1.654-.5.595.041.982.222 1.203.558.262.407.382.929.382 1.555 0 .658-.147 1.24-.46 1.721a4.1 4.1 0 0 1-1.215 1.276 4.8 4.8 0 0 1-1.684.75 6.6 6.6 0 0 1-1.842.193m16.321-4.156c-.079-.492-.139-.976-.199-1.443a66 66 0 0 1-.2-2.194c-.04-.678-.06-1.31-.073-1.864 0-.566 0-1.03.025-1.432 0-.333.016-.954.068-1.839.052-.902.147-1.926.286-3.055.142-1.129.336-2.32.573-3.539q.359-1.83.893-3.336c.35-.96.77-1.757 1.247-2.361.406-.53.857-.782 1.37-.752.245 0 .434.074.597.222.21.183.369.42.519.71.15.317.267.675.36 1.063.098.426.161.842.221 1.243q.079.625.096 1.159a34.406 34.406 0 0 1-.355 6.02 23 23 0 0 1-1.14 4.632 17.7 17.7 0 0 1-2.02 4.044c-.636.973-1.4 1.886-2.268 2.722m13.628 5.31h-.156v-.1c0-.551.069-1.196.216-1.917.153-.71.377-1.383.699-2.03a5 5 0 0 1 1.208-1.553c.459-.374.994-.56 1.654-.546q.889.011 1.19.51c.275.402.4.919.4 1.55 0 .65-.146 1.235-.468 1.732-.32.525-.734.965-1.212 1.32-.502.356-1.072.61-1.692.798a6.2 6.2 0 0 1-1.84.235M98.225 203.491c.436-1.006.657-2.2.657-3.542 0-1.355-.245-2.57-.731-3.612a7.8 7.8 0 0 0-2-2.659 10.2 10.2 0 0 0-2.868-1.73 16.5 16.5 0 0 0-3.365-.929 17 17 0 0 0-4.808-.098c-1.59.191-3.138.58-4.617 1.148a18.3 18.3 0 0 0-4.11 2.183 16.7 16.7 0 0 0-3.337 3.085 13.8 13.8 0 0 0-2.251 3.793 11.6 11.6 0 0 0-.833 4.356c0 1.566.26 3.055.753 4.418.503 1.394 1.212 2.657 2.137 3.744a11.9 11.9 0 0 0 3.318 2.79c.72.416 1.49.757 2.309 1.033-2.202.768-3.938 1.84-5.171 3.203-1.566 1.732-2.363 3.937-2.363 6.594 0 1.36.223 2.598.646 3.713a9.8 9.8 0 0 0 1.804 2.97 9.6 9.6 0 0 0 2.685 2.1 11.4 11.4 0 0 0 3.346 1.152c1.55.274 3.07.274 4.519.02a13.8 13.8 0 0 0 4.02-1.465 13 13 0 0 0 3.238-2.604 11.8 11.8 0 0 0 2.148-3.452c.06-.13.106-.273.15-.418-.382-.254-.778-.489-1.176-.743-.09.115-.167.24-.23.363-.556.861-1.194 1.65-1.937 2.32a9.2 9.2 0 0 1-2.412 1.599c-.865.415-1.801.672-2.816.812-1.007.109-2.071.084-3.163-.12-1.896-.337-3.332-1.091-4.238-2.206-.914-1.134-1.375-2.7-1.375-4.629 0-.727.123-1.443.38-2.107a7.7 7.7 0 0 1 1.042-1.937c.436-.612.952-1.173 1.52-1.689.57-.53 1.19-.99 1.809-1.366.617-.397 1.25-.727 1.866-1 .609-.26 1.201-.473 1.741-.593.096-.022.205-.06.314-.08v-1.218c-.13-.06-.26-.11-.387-.162a19 19 0 0 1-3.34-1.913 15.4 15.4 0 0 1-2.904-2.637 13.2 13.2 0 0 1-2.041-3.246 8.5 8.5 0 0 1-.78-3.593c0-1.167.196-2.315.573-3.394.387-1.09.916-2.113 1.574-3.053a12 12 0 0 1 2.388-2.505 13.5 13.5 0 0 1 2.974-1.828 12 12 0 0 1 3.338-.968 11 11 0 0 1 3.49.038c1.427.238 2.464.801 3.217 1.725.74.934 1.108 2.12 1.113 3.514-.005 1.312-.313 2.478-.922 3.462a9.5 9.5 0 0 1-2.429 2.596c-.987.73-2.1 1.32-3.312 1.776-1.204.446-2.396.785-3.542.984l-.341.06v1.394c.177.019.365.038.54.06 1.072.101 2.202.126 3.337.101a21.4 21.4 0 0 0 3.36-.374 16.3 16.3 0 0 0 3.102-.979 9.4 9.4 0 0 0 2.598-1.708 8 8 0 0 0 1.793-2.549M32.703 83.613c.59 2.32 1.182 4.632 1.774 6.952v23.932q.214 2.197.44 4.397c-.587-1.424-1.182-2.856-1.764-4.293-5.165-9.911-10.325-19.82-15.491-29.706-5.736.5-11.48 1.024-17.219 1.57.745 2.299 1.474 4.589 2.219 6.884v47.873c-.592 2.419-1.18 4.84-1.771 7.253 5.002-.47 10.006-.924 15-1.37-.59-2.317-1.168-4.62-1.766-6.932v-31.024l-.433-4.402c.578 1.424 1.173 2.853 1.76 4.274q9.506 18.226 19.025 36.505c3.818-.303 7.654-.61 11.485-.904V89.666c.587-2.413 1.174-4.82 1.763-7.23-5.007.38-10.017.77-15.022 1.177m45.102 45.482c-.584-1.148-1.184-2.301-1.776-3.454V96.388c.592-1.219 1.192-2.432 1.776-3.659 1.182-.672 2.366-1.325 3.547-2 2.355-.142 4.719-.298 7.082-.43 1.184.517 2.366 1.042 3.536 1.567.595 1.136 1.19 2.29 1.777 3.44v29.26c-.587 1.217-1.182 2.427-1.777 3.652-1.17.661-2.352 1.322-3.536 1.99-2.363.138-4.727.286-7.082.444a286 286 0 0 0-3.547-1.557m-4.423-48.488c-3.834 4.09-7.666 8.193-11.497 12.3v39.035c3.831 3.555 7.663 7.14 11.497 10.731 7.665-.508 15.344-.986 23.023-1.426 3.83-4.053 7.665-8.089 11.502-12.136V90.084c-3.837-3.637-7.671-7.269-11.502-10.873-7.68.423-15.358.899-23.023 1.396m75.247-3.85c.313 2.366.597 4.722.906 7.064-2.956 10.742-5.911 21.495-8.858 32.247-.15 1.18-.3 2.383-.437 3.561-.153-1.172-.31-2.35-.445-3.52-2.96-10.515-5.902-21.033-8.86-31.534.292-2.391.592-4.758.884-7.14-6.05.256-12.11.532-18.152.836 1.182 2.322 2.369 4.612 3.531 6.916a42641 42641 0 0 1 16.831 54.207c3.837-.161 7.688-.311 11.508-.456 5.619-18.533 11.226-37.046 16.84-55.54 1.186-2.403 2.357-4.8 3.541-7.201-5.763.17-11.51.371-17.29.56m35.467 34.442c1.921-8.031 3.831-16.057 5.76-24.088.15-.88.284-1.765.44-2.656q.226 1.316.437 2.64c1.926 7.951 3.853 15.9 5.763 23.853-.295.3-.581.609-.884.91-3.55.051-7.087.122-10.626.204zm-4.887-35.363c.453 1.913.892 3.834 1.342 5.725a80265 80265 0 0 0-13.292 49.561c-1.187 2.4-2.36 4.802-3.547 7.193 5.455-.17 10.931-.314 16.39-.446-.293-2.358-.585-4.702-.893-7.074q.9-3.563 1.793-7.146.42-.433.878-.9a3099 3099 0 0 1 16.832-.333c.294.293.584.577.897.867.579 2.358 1.174 4.722 1.76 7.069-.283 2.372-.586 4.746-.884 7.105a2675 2675 0 0 1 18.171-.216c-1.19-2.347-2.374-4.706-3.539-7.05-4.445-16.36-8.874-32.704-13.303-49.048.453-1.916.887-3.848 1.318-5.772-7.962.115-15.93.276-23.923.465m61.592 48.9v-14.641c.308-.292.6-.59.887-.89 3.26 0 6.497.01 9.758.02l4.442 2.23c.593 1.192 1.193 2.39 1.766 3.559v5.331c-.573 1.18-1.173 2.358-1.766 3.536q-2.213 1.1-4.442 2.2c-3.097-.006-6.197-.02-9.303-.02zm0-27.044V86.168c.308-.314.6-.612.887-.902 3.56 0 7.103 0 10.65.025 1.193.585 2.374 1.191 3.55 1.787.593 1.186 1.193 2.386 1.766 3.569v2.664c-.573 1.175-1.173 2.35-1.766 3.542a306 306 0 0 1-3.55 1.74c-3.547-.008-7.09-.019-10.65-.019-.287-.292-.579-.571-.887-.882M225.74 75.13c.597 2.358 1.206 4.714 1.784 7.077v47.873c-.578 2.367-1.187 4.736-1.785 7.102 11.822-.07 23.637-.062 35.456.022 3.547-3.508 7.1-7.014 10.629-10.518v-15.515c-2.51-2.555-5.01-5.086-7.526-7.622 2.213-2.194 4.431-4.391 6.65-6.58V84.99c-3.256-3.282-6.495-6.558-9.753-9.843-11.819-.079-23.634-.087-35.456-.016m59.399.33c.586 2.359 1.187 4.739 1.773 7.12v47.877c-.586 2.34-1.187 4.692-1.773 7.053 5.61.093 11.212.214 16.825.342-.589-2.386-1.181-4.755-1.782-7.14V82.84c.6-2.353 1.193-4.698 1.782-7.048a2307 2307 0 0 0-16.825-.33m46.065 27.78V88.173c.294-.29.584-.58.884-.858 3.555.123 7.087.257 10.64.404 1.478.787 2.947 1.593 4.417 2.386.603 1.208 1.187 2.41 1.777 3.623v5.323c-.59 1.167-1.174 2.326-1.777 3.498-1.47.667-2.939 1.347-4.418 2.011-3.552-.13-7.084-.273-10.64-.396-.3-.298-.589-.61-.883-.924m-15.06-27.074c.597 2.39 1.192 4.768 1.779 7.148v47.87c-.587 2.356-1.182 4.695-1.78 7.045 5.608.167 11.227.339 16.837.541-.598-2.38-1.187-4.766-1.776-7.162v-15.945c.294-.298.584-.585.884-.874 2.207.079 4.423.169 6.647.251.587.314 1.179.637 1.782.96 2.502 7.773 5.013 15.567 7.52 23.36 5.617.235 11.219.484 16.827.752-1.624-2.889-3.242-5.763-4.866-8.654-2.216-6.162-4.434-12.322-6.636-18.47 3.239-3.12 6.48-6.211 9.725-9.313V88.619a4694 4694 0 0 0-10.604-11.13 2737 2737 0 0 0-36.34-1.322m74.396 29.859V90.939c.295-.273.59-.546.884-.833 3.545.21 7.081.42 10.626.653 1.48.828 2.953 1.672 4.429 2.495a902 902 0 0 1 1.763 3.661v5.324c-.584 1.156-1.174 2.298-1.763 3.445-1.476.643-2.95 1.285-4.429 1.935-3.545-.224-7.081-.44-10.626-.65zm-15.044-27.427c.59 2.396 1.182 4.787 1.768 7.176v47.87c-.586 2.344-1.179 4.67-1.768 7.012 5.602.29 11.213.59 16.812.94-.6-2.405-1.179-4.807-1.768-7.206v-15.962c.295-.286.59-.56.884-.836 2.213.12 4.426.252 6.647.394.582.333 1.188.67 1.76 1.005 2.511 7.84 5.027 15.68 7.532 23.531 5.597.358 11.207.732 16.801 1.15l-4.862-8.771c-2.213-6.209-4.426-12.423-6.634-18.626a4223 4223 0 0 1 9.734-9.08V92.117a4628 4628 0 0 0-10.624-11.365 2522 2522 0 0 0-36.282-2.153m72.554 40.311c1.907-7.84 3.84-15.669 5.744-23.484.153-.874.303-1.738.447-2.62.145.899.292 1.787.445 2.688 1.902 8.152 3.823 16.295 5.736 24.433l-.879.825c-3.539-.306-7.07-.604-10.61-.88-.291-.325-.589-.642-.883-.962m-4.858-35.863c.44 1.949.885 3.91 1.33 5.87-4.419 16.046-8.856 32.106-13.276 48.179-1.168 2.276-2.35 4.553-3.529 6.832 5.46.393 10.902.803 16.365 1.251-.297-2.396-.595-4.776-.89-7.165.573-2.32 1.174-4.643 1.76-6.97.298-.271.595-.525.885-.801 5.602.448 11.196.907 16.798 1.404.287.312.592.629.887.954a934 934 0 0 0 1.766 7.26l-.87 7.001a2908 2908 0 0 1 18.094 1.66c-1.176-2.471-2.344-4.947-3.534-7.423q-6.62-25.227-13.248-50.414c.444-1.875.89-3.757 1.326-5.632a2500 2500 0 0 0-23.864-2.006M112.855 168.13c39.388 6.572 81.83 11.86 126.309 11.86 44.815 0 86.571-5.223 126.325-11.86 0 0-82.476 4.213-126.325 4.213-43.847 0-126.309-4.213-126.309-4.213M298.913 18.802c.005-.08-.033-.176-.058-.257-.324-1.03-.657-2.048-.962-3.089-.124-.41-.247-.826-.286-1.245-.102-1.225-.385-2.417-.794-3.586-.052-.15-.13-.31-.226-.452a13.7 13.7 0 0 0-2.883-3.078c-.143-.115-.283-.246-.44-.372-1.69-1.01-2.77-1.44-2.77-1.44s.673-1.515.731-1.772c.044-.22.338-.497-2.394-1.666 0 0-.005 0-.005-.011-.396-.165-.858-.349-1.39-.567a11 11 0 0 0-1.793-.513c-3.908-1.136-6.64-.983-10.397.421h.005c-.437.115-.775.23-.956.338-1.757 1.11-3.238 2.568-4.843 3.862a3.9 3.9 0 0 1-1.078.614 20.8 20.8 0 0 0-5.016 2.632c-.423.302-.766.681-1.148 1.03a23 23 0 0 0-1.314-1.95c-1.589-2.164-3.499-4.025-5.56-5.744a4.2 4.2 0 0 0-1.21-.7c-1.223-.464-2.5-.64-3.806-.732a29.5 29.5 0 0 0-7.943.525 5.2 5.2 0 0 1-1.746.053C237.76.72 234.915.05 232.004.003c-.305.011-.794.117-1.396.288h.005c-5.554 1.08-8.968 2.933-12.887 7.183-.676.64-1.295 1.27-1.798 1.948-.5.648-.918 1.214-1.278 1.708h-.005v.02c-.5.69-.806 1.166-1.086 1.618-.456-.837-.885-1.66-1.578-2.492-.258-.371-.478-.647-.643-.79-1.627-1.28-3.48-2.207-5.233-3.298-.343-.207-.67-.5-.926-.824a21.7 21.7 0 0 0-4.153-3.879c-.753-.53-1.536-1.019-2.41-1.32a3.1 3.1 0 0 0-.979-.162c-1.883.011-3.752.184-5.577.65-1.181.302-2.371.614-3.295 1.466-.291.268-.58.597-.72.94-.333.896-.94 1.543-1.589 2.233-1.283 1.599-4.466 4.543-5.153 6.327a24 24 0 0 1-.618 1.797c-.503 1.228-1.004 2.442-1.617 3.603-.596 1.136-1.335 2.196-2.017 3.285-.044.083-.107.142-.154.209-.217.374-.077.698.352.709.291.011.585-.059.871-.103.283-.037.575-.081.968-.129-.06.22-.124.43-.173.631-.322 1.052-.913 5.531-1.015 8.372.058 1.642-.247 3.324.253 4.943.02.059.036.126.041.187.119.801.22 1.602.344 2.409.047.304.151.602.23.893.847.173 1.493-.444 2.345-.494-.101.923-.2 1.763-.288 2.615-.025.229-.113.471.156.563.913-.644 1.91-1.049 3.035-1.415-.047.584-.094 1.08-.138 1.577-.04.464-.008.5.435.584.742.147 1.456-.084 2.16-.235 1.17-.243 2.306-.603 3.455-.89.78-.207 1.542-.41 2.143-.996.119-.115.339-.137.514-.165.226-.03.457-.009.685-.03a26.5 26.5 0 0 0 8.817-2.345c.506-.229 1.006-.486 1.553-.748-.044.332-.069.589-.118.834-.064.436-.146.877-.198 1.329-.017.106.024.279.096.324.08.047.225-.012.343-.045.08-.025.146-.081.21-.128.849-.673 1.681-1.343 2.533-1.99.333-.246.671-.511 1.042-.69 1.11-.519 2.12-1.186 3.065-1.987.118-.106.236-.234.332-.37.602-.86.992-1.843 1.39-2.814.199.555.29 1.155.553 1.7.253.524.399 1.113.542 1.688.37 1.485.698 2.983 1.042 4.463.038.114.054.253.112.348.094.14.212.335.338.346.124.026.314-.136.399-.276.332-.536.626-1.083.94-1.638.17-.299.36-.608.599-1.002.376.787.704 1.507 1.047 2.222 1.97 3.94 4.494 7.448 7.635 10.507.231.226.498.43.723.656.162.198.388.421.42.653.138 1.194.8 2.11 1.477 3.02 1.008 1.356 1.943 2.782 3.006 4.105.65.8 1.229 1.688 2.169 2.21.563.302.632.29.992-.254.388-.58.778-1.175 1.212-1.842.924 1.399 1.666 2.73 2.095 4.284.393.137.505-.22.676-.488.64-1.005 1.278-2.015 1.976-3.11.874.807 1.053 2.072 2.13 2.65.349-.26.726-.486 1.047-.79.838-.765 1.65-1.552 2.476-2.322a1 1 0 0 1 .21-.165c1.973-1.337 3.102-3.444 4.606-5.205 2.377-3.207 5.64-8.663 6.22-10.1.112-.28.23-.558.354-.843.388.405.66.717.94 1.022.278.301.542.63.863.884.49.374.924.157 1.012-.449.008-.126 0-.246.008-.36.211-1.817.335-3.645.668-5.445.343-1.817.868-3.614 1.38-5.397.239-.832.568-1.667.89-2.546.22-.68.305-1.621.321-2.676.828 1.658 1.735 3.382 2.576 4.133.522.419 1.017.801 1.462 1.223.943.887 1.916 1.78 2.77 2.762.858.963 1.584 2.032 2.361 3.054.053.072.091.145.14.215.267.337.61.298.773-.095.113-.265.14-.564.209-.863.06-.296.123-.572.198-.977l.522.394c.868.659 4.81 2.757 7.407 3.826 1.542.517 2.98 1.373 4.664 1.446.06 0 .118.008.19.02.772.178 1.544.348 2.333.502.308.07.619.07.913.092.448-.756.104-1.59.338-2.409.833.413 1.58.785 2.33 1.167.193.106.388.279.586.047-.294-1.1-.327-2.188-.275-3.385.506.246.962.466 1.402.675.415.196.461.182.692-.209.388-.675.415-1.423.523-2.154.175-1.186.225-2.398.349-3.603.085-.801.159-1.597-.185-2.375-.063-.148-.01-.372.022-.556.044-.22.146-.44.204-.656a27.8 27.8 0 0 0 .855-9.212c-.039-.567-.108-1.122-.163-1.75.292.165.512.282.732.405.379.212.766.44 1.16.642.09.044.272.078.337.022.07-.059.07-.223.075-.338m-48.711 15.361c0-.011.005-.011.005-.028-.01-.148-.01-.276.055-.371.176-.26.377-.528.607-.773.267-.28.575-.544.965-.787-.01.231-.038.416-.052.592-.022.184-.039.36-.028.521.022.508.08 1.005.146 1.502.058.474.209.94.22 1.404.052 2.037.063 4.077.102 6.106 0 .276-.066.603.3.834.568-1.786.612-3.636 1.321-5.447.176.217.316.418.446.589.096.12.186.234.283.337.365.397.382.776.209 1.31-.712 2.131-1.73 4.144-2.801 6.114-.209.41-.484.765-.731 1.15-.063-.232-.09-.444-.135-.648a6.3 6.3 0 0 1-.069-1.127c.055-1.066.091-2.116.091-3.185 0-1.066-.047-2.129-.165-3.181a47 47 0 0 0-.398-2.665c-.102-.592-.21-1.184-.294-1.773-.022-.156-.055-.315-.077-.474m-7.713 21.743c.07-.156.176-.304.385-.502.775-.74 1.559-1.482 2.342-2.227.778-.74 1.555-1.48 2.339-2.208.05-.044.112-.094.167-.14s.135-.105.21-.15c.07-.058.14-.103.247-.187-.113.72-.506 1.527-1.025 2.336-1.15 1.78-3.013 3.525-4.445 4.058-.253-.486-.321-.728-.22-.98m-8.756-6.672a1.4 1.4 0 0 1-.22-.48c-.547-2.082-1.064-4.181-1.622-6.263a1.5 1.5 0 0 1-.03-.57c.063-.357.272-.655.577-.973.072.267.124.463.179.661.401 1.39.783 2.766 1.19 4.147.206.64.555 1.161 1.322 1.348 0-.187.016-.332-.006-.463-.112-.698-.236-1.393-.354-2.102l-.102-.706c-.09-.834-.057-1.68-.112-2.517-.05-.84-.152-1.675-.187-2.509-.044-.756.332-1.267 1.083-1.585.033.985-.006 1.99.09 2.952.124 1.016.377 2.015.558 3.009.184.974.35 1.96.572 2.922.209.957.126 2.015.824 2.852.066-.109.066-.223.097-.326.033-.117.093-.226.088-.34-.028-1.857-.022-3.718.04-5.571.061-1.96.072-3.927.072-5.897.011-1.027.011-2.071.017-3.112 0-.29.118-.578.187-.904.788.326 1.352.614 1.723.996.365.371.525.843.503 1.532 0 .145.005.299.027.447.168 1.565.146 3.14.072 4.713-.044.82-.1 1.647-.151 2.481-.108 1.552-.157 3.129-.418 4.656-.253 1.51-.737 2.966-1.119 4.448-.074.304-.112.606-.17.927.569.12.638-.23.778-.53.382-.882.756-1.762 1.17-2.635.44-.913.8-1.836 1.07-2.833.739-2.84 1.138-5.713 1.143-8.643 0-.57.014-1.172.23-1.828 0 .006 0 .006.01.006v-.006c.596.65 1.118 1.211 1.626 1.792a.65.65 0 0 1 .157.407c.041.59.022 1.172 0 1.758-.05.974-.146 1.948-.344 2.903-.203 1.024-.618 1.998-.827 3.017-.074.324-.176.647-.22 1.007-.038.28-.016.584.124.918a3 3 0 0 1 .264-.175c.005-.009.019-.02.019-.02.005 0 .005-.017.005-.017a.5.5 0 0 0 .19-.187c.261-.53.503-1.085.717-1.649.888-2.358 1.795-4.708 2.251-7.198.08-.427.259-.834.385-1.253.217.254.286.478.32.698.147 1 .299 1.99.46 2.989.092.603.188 1.203.317 1.809.047.217.058.43.069.636.033.845-.248 1.588-.75 2.302-.957 1.382-1.875 2.755-3.142 3.905-.616.555-1.218 1.136-1.82 1.713-.607.567-1.206 1.142-1.797 1.717-.602.591-1.22 1.183-1.82 1.763-.145.134-.327.235-.505.352-.108-.117-.193-.19-.264-.282-.091-.12-.17-.234-.25-.349a1447 1447 0 0 1-4.296-5.86m-4.596 1.225c.006-.316.06-.617.113-.924a4.9 4.9 0 0 1 .522-1.566c.333.692.586 1.287.89 1.862.36.672.704 1.356 1.059 2.043.102.184.209.368.31.555.413.748.869 1.493 1.424 2.163.16.2.231.393.245.606.027.267-.063.552-.338.898-.278-.301-.536-.538-.75-.817-1.042-1.368-2.084-2.736-3.115-4.114a5 5 0 0 1-.17-.229c-.102-.165-.2-.315-.19-.477M219.67 34.69c.052-1.155.247-2.321.44-3.471.022-.143.101-.257.173-.38a1.3 1.3 0 0 1 .236-.36c.096-.114.187-.234.31-.338.04.706.064 1.346.097 2.004.027.67.063 1.36.096 2.018 0 .092.022.207.039.318.153.988.772 2.68 1.234 3.246.027.039.055.084.08.109.032-.059.076-.134.107-.179.082-.117.15-.229.162-.343.022-.212 0-.43-.011-.65v-.338c-.028-1.136-.187-2.289-.047-3.402.08-.664.203-1.315.327-1.97.085-.455.17-.894.267-1.334.123-.581.247-1.142.376-1.725.182-.846.506-1.67.693-2.515.022-.114.069-.234.085-.349.033-.145.077-.287.107-.438.22-.8.63-1.46 1.232-2.096.019.056.024.084.046.115.017.033.05.083.044.1-.253 1.848-.552 3.687-.747 5.543-.226 2.06-.366 4.12-.514 6.187-.044.614-.033 1.225.005 1.825.058.893.176 1.778.31 2.643.056.338.102.659.152.988.01.076.022.162.022.24.003.182.025.366.132.452.06.031.14.059.253.031.05-.006.096-.045.145-.098.064-.07.119-.178.165-.276.072-.153.13-.33.195-.458.017-.033 0-.078 0-.136a1.4 1.4 0 0 1-.05-.302c-.005-.452-.04-.907 0-1.348.072-.723.169-1.443.243-2.174.151-1.448.291-2.905.473-4.354.112-.904.3-1.808.546-2.698.328-1.203.699-2.39 1.053-3.581.35-1.194.687-2.397 1.047-3.592.107-.349.316-.67.53-1.113.36.686.473 1.222.394 1.844-.2 1.7-.316 3.405-.467 5.122-.022.262-.022.53-.033.798a7 7 0 0 1-.053.72c-.118.798-.242 1.607-.442 2.38-.283 1.08-.35 2.18-.476 3.282-.027.207-.099.42-.162.623a5 5 0 0 0-.102.326 3.4 3.4 0 0 0-.096.71c0 .063.03.102.047.15.022.056.022.126.066.17h.016c.08.059.198.092.363.07.072-.126.179-.265.253-.419 0-.008.011-.022.011-.033a28 28 0 0 0 1.198-3.07c.344-1 .638-2.015.93-3.023.013-.044.024-.117.046-.161.022-.081.028-.176.039-.257 0-.034.01-.067.01-.103-.162-1.295.424-2.434.699-3.849.209.257.374.483.525.673.156.2.286.374.393.558.024.047.041.117.063.176.027.1.05.209.05.312 0 .062.005.128 0 .187-.297 1.56-.63 3.117-.94 4.675-.05.231-.091.477-.072.709.005.148.14.29.223.443.148-.108.368-.175.445-.326.17-.34.3-.684.44-1.047.068-.15.118-.296.187-.438.197-.413.409-.834.623-1.236.21-.422.407-.826.61-1.24.924.788.924.788.608 1.84-.033.08-.052.162-.074.234-.011.04-.017.081-.028.115a6 6 0 0 1-.86 2.107 8.3 8.3 0 0 1-1.481 1.73 9 9 0 0 0-.701.692c-.924 1.041-1.864 2.088-2.782 3.129-.101.114-.173.262-.264.402-.046.094-.123.164-.159.268-.36.823-.704 1.654-1.053 2.492-.349.823-.703 1.655-1.047 2.472-.101.246-.242.455-.404.743a8 8 0 0 0-.283-.299c-.022-.022-.044-.056-.071-.08a3 3 0 0 1-.294-.338c-.767-.983-1.51-1.993-2.287-2.964a7 7 0 0 0-.215-.29 22.3 22.3 0 0 1-3.045-5.236c-.03-.059-.041-.126-.074-.184-.17-.441-.344-.919-.327-1.36m-13.608-.19c0-.086.006-.164.006-.245.005-.07 0-.142.019-.195.352-1.276.302-2.573.332-3.871 0-.081-.005-.165-.005-.232-.003-.084 0-.164 0-.234 0-.078 0-.15.011-.226.137-.955.302-1.892.45-2.844.067-.469.135-.949.207-1.418.08-.491.151-.977.22-1.487.145.044.316.106.467.161.151.06.294.104.462.165-.033 1.923-.399 3.76-.726 5.615.039.014.085.023.13.048a.6.6 0 0 1 .118-.117.6.6 0 0 0 .107-.123c.156-.28.286-.575.417-.863.451-1.03.8-2.098 1.125-3.17.08-.268.159-.525.255-.857.118.034.237.07.333.092.118.034.228.073.343.092-.024.22-.035.383-.08.542-.337 1.298-.648 2.595-1.041 3.868-.17.617-.467 1.194-.74 1.76-.118.247-.258.48-.392.721-.14.229-.278.474-.402.717-.071.129-.038.313-.05.477.017.012.04.012.061.023.02 0 .053.01.064.025.365-.371.772-.72 1.074-1.128.198-.298.412-.588.621-.865.726-.999 1.43-2.018 1.847-3.212.06.301.21.572.28.873-.22 1.181-.555 2.328-1.283 3.336-.305.415-.654.856-1.086 1.121-.97.6-2.006 1.114-3.133 1.73h-.005c.005-.12 0-.186-.006-.278m-11.508 2.596c.036-.234.053-.41.1-.583.172-.625.346-1.228.516-1.853.173-.6.35-1.228.52-1.831.021-.084.008-.162.021-.234.011-.115.033-.22.028-.335-.044-.997-.096-1.99-.154-2.99a5 5 0 0 0-.082-.694 6 6 0 0 1-.058-1.619c.052-.519.198-1.04.459-1.538.008-.039.02-.058.022-.086.027-.056.05-.098.071-.16.283-.73.283-.73 1.14-.739-.07.321-.137.636-.202.957-.064.33-.13.637-.21.96q-.032.16-.09.338c-.074.257-.16.514-.209.768-.027.117.06.25.107.376.102-.041.237-.064.31-.134.11-.125.196-.279.27-.43.514-.996 1.02-2.003 1.54-3 .01-.033.054-.07.082-.092.044-.072.101-.114.156-.164.047-.023.083-.045.116-.056.146-.059.291-.103.459-.14.17-.036.357-.07.585-.128-.475.904-.64 1.797-1.297 2.445-.02.008-.03.033-.041.056a.6.6 0 0 0-.096.156c-.011.042-.028.075-.044.112a50 50 0 0 0-.817 2.073c-.266.729-.5 1.485-.69 2.236 0 .01-.002.01-.002.027-.03.115-.036.24-.047.344.08.092.154.125.236.125h.009c.033 0 .066-.033.104-.055.03-.02.063-.02.09-.06.108-.136.182-.29.262-.44a1.3 1.3 0 0 0 .082-.229c.055-.142.107-.279.19-.407.412-.662.857-1.295 1.174-2.024.23-.524.516-1.021.805-1.512.082-.148.187-.282.288-.416.113-.145.229-.307.336-.46.665-.997 1.346-2.005 1.984-3.02.231-.388.53-.628 1.025-.835-.08.332-.101.611-.198.857-.327.812-.665 1.621-.995 2.442-.33.82-.65 1.633-.997 2.448-.248.6-.547 1.177-.88 1.733-.541.882-1.094 1.738-1.652 2.6-.274.444-.544.874-.824 1.315-.17.254-.385.5-.588.745-.044.042-.107.098-.162.148-.025.02-.05.037-.053.07a4 4 0 0 0-.096.318 1.3 1.3 0 0 0-.033.237c0 .062.011.1.039.126.052.067.104.092.148.092.099 0 .192-.084.27-.176.043-.053.08-.1.118-.123.176-.164.343-.32.52-.474.458-.43.912-.862 1.335-1.326.286-.31.56-.633.802-.99.822-1.217 1.652-2.412 2.433-3.648.706-1.105 1.35-2.25 2.017-3.385.008-.011.044-.023.069-.037.027-.005.038-.022.077-.044.052.628-.014 1.183-.242 1.71-.044.093-.088.201-.135.294-.044.07-.071.148-.099.231-.272.544-.456 1.144-.728 1.7-.176.371-.371.742-.547 1.116-.14.288-.294.57-.44.857-.22.416-.437.834-.681 1.225-.415.687-1.012 1.242-1.526 1.856-.052.07-.093.131-.145.184-.102.115-.21.23-.292.35a.64.64 0 0 0-.066.267c-.005.042-.005.092-.019.145.033-.008.066-.022.104-.022.49-.1 1.567-.75 2.098-1.225.057-.059.123-.104.162-.162.3-.35.62-.706.934-1.07.31-.342.605-.691.932-1.062.014.114.014.228.025.337.002.104-.011.207-.025.302a1 1 0 0 1-.074.284c-.396.72-.811 1.438-1.284 2.113-.181.251-.48.435-.772.597q-.072.039-.124.07a15.3 15.3 0 0 1-3.977 1.507c-.08.014-.165.04-.236.061-.866.185-1.718.402-2.567.603a3 3 0 0 1-.316.045c-.022 0-.044.011-.07.011-.09.011-.183.022-.288.04m.814-16.628c.63-.184 1.215-.329 1.795-.51.615-.19 1.217-.447 1.833-.631q.275-.074.539-.204c.404-.145.794-.32 1.168-.538.527-.316 1.063-.642 1.67-1.002.146.407.265.722.366 1.035.075.223-.033.368-.198.483-.41.318-.832.639-1.245.965-.775.575-1.569 1.145-2.47 1.516a7.4 7.4 0 0 1-1.251.371 10 10 0 0 1-1.317.154c-1.223.053-2.457.167-3.685.195-1.317.033-2.625 0-3.994-.011a15 15 0 0 0-.118-.731c-.027-.235-.06-.464-.071-.698-.066-1.557-.097-3.129.033-4.703.01-.125.044-.229.08-.332.016-.07.021-.153.043-.21a1.5 1.5 0 0 1 .333-.451c1.074-.985 2.119-2.004 2.919-3.235.242-.368.566-.346 1.047-.36-.93 1.546-1.798 2.98-2.669 4.418-.165.28-.34.541-.503.812-.044.067-.058.098-.044.145.017.073.06.157.146.318.393-.178.72-.43.945-.8.8-1.287 1.781-2.4 2.892-3.408.376-.332.747-.659 1.127-.982.093-.081.195-.154.285-.235.388-.301.775-.617 1.201-.87.1-.065.24-.076.352-.126.118-.031.22-.104.352-.123-2.067 2.07-3.878 4.34-5.494 6.748a49 49 0 0 0-1.564 2.442c.2.232.319.115.44-.005.5-.547 1.011-1.08 1.509-1.625.434-.485.857-.974 1.45-1.292.3-.164.52-.491.779-.737.39-.393.783-.764 1.168-1.155.63-.628 1.267-1.217 1.863-1.864.753-.801 1.473-1.619 2.455-2.169.085-.047.181-.1.269-.14.041-.019.085-.008.187-.019.137.318.283.667.45 1.052-.75.288-1.187.905-1.66 1.471-1.195 1.426-2.44 2.794-3.9 3.95-.233.186-.426.407-.645.613q-.38.354-.748.72c-.25.229-.503.475-.756.709a1.6 1.6 0 0 0-.225.257c-.08.123-.069.26-.017.594 2.268-1.501 4.527-2.964 6.652-4.688a34 34 0 0 0 2.077-1.806c.253.728.468 1.342.693 1.981-.077.079-.148.151-.225.232-.03.022-.053.056-.08.078a2 2 0 0 0-.214.179c-.781.63-1.526 1.317-2.383 1.825-.492.304-.968.65-1.476.938a4.3 4.3 0 0 1-1.017.452c-.278.072-.536.234-.8.36-.22.114-.338.29-.35.647m-9.394 19.277c0-.31.077-.514.206-.65a.76.76 0 0 1 .401-.221 8.7 8.7 0 0 0 1.729-.544c.146-.056.283-.104.418-.173.494-.207.992-.43 1.476-.637.423-.173.827-.393 1.31-.628a3.5 3.5 0 0 1-.4 1.103c-.105.184-.207.382-.344.566-.06.081-.184.129-.314.176-.06.009-.129.03-.19.045-1.167.293-2.344.57-3.526.848-.233.059-.486.081-.766.115m-3.549-11.85c.044-.625.21-1.158.608-1.622.096-.106.187-.223.31-.318.338-.257.652-.552.973-.851.53-.463 1.042-.949 1.561-1.426a.9.9 0 0 1 .479-.246c-.108.293-.184.595-.333.86-.838 1.59-1.369 3.282-1.916 4.979-.131.407-.241.826-.34 1.228a.5.5 0 0 0 .022.203c0 .006.01.02.01.02.023.072.045.137.067.22.22-.114.357-.279.47-.452.129-.209.22-.438.318-.639.333-.672.542-1.392.869-2.048.316-.617.687-1.195 1.094-1.753.239-.33.48-.659.764-.968a.5.5 0 0 1 .266-.154c.534-.092 1.067-.156 1.683-.245-.17.463-.418.803-.671 1.113a24 24 0 0 0-3.164 5.275c-.288.672-.494 1.34-.654 2.045q-.24.998-.514 1.982c-.06.22-.167.44.187.636.113-.195.231-.38.322-.586.437-.985.81-2.004 1.336-2.958.527-.96 1.187-1.836 1.814-2.746.33-.48.662-.96 1.011-1.43.643-.895 1.316-1.78 2.103-2.561q.106-.111.211-.235c.283-.393.583-.577.951-.625.368-.033.808.07 1.383.232-.102.206-.165.432-.294.594-.451.578-.907 1.145-1.358 1.722-.866 1.08-1.72 2.155-2.55 3.28a73 73 0 0 1-2.428 3.067c-.044.07-.06.15-.09.234-.033.081-.075.137-.094.223.753-.142 1.168-.767 1.71-1.2.541-.427 1.063-.89 1.588-1.34.547-.474 1.11-.906 1.622-1.412.486-.49.907-1.046 1.358-1.576.275.505.26.96-.091 1.356-.393.441-.822.857-1.22 1.298-.385.438-.745.91-1.163 1.328q-.178.174-.368.346c-.369.338-.745.664-1.116 1-.069.07-.118.15-.209.253.511.246.929.115 1.325-.145.827-.572 1.649-1.164 2.476-1.738.113-.087.231-.176.39-.28.022.31.014.564-.115.785-.06.103-.14.209-.264.304-1.217.89-2.427 1.806-3.639 2.718-.099.07-.217.129-.335.162-1.647.43-3.29.848-4.936 1.275-.088.04-.193.059-.286.081-.08.012-.162.028-.278.034-.038-.137-.099-.28-.118-.416-.085-.603-.151-1.192-.23-1.792-.07-.597-.152-1.172-.232-1.76-.082-.595-.156-1.187-.253-1.778-.203-1.19-.096-2.373-.022-3.553m-2.608 3.806c.066-.678.209-1.294.462-1.744v.009-.009c.022.095.041.15.055.21.019.07.03.125.047.187.005.041.022.103.027.145.107.759.209 1.52.322 2.285.107.765.214 1.513.307 2.278.036.209.03.337-.008.455-.052.187-.192.287-.547.438-.558-.938-.813-2.755-.665-4.254m.209-4.942c.027-.315.038-.64.09-.963.287-1.56.614-3.123 1.16-4.633.13-.368.311-.56.688-.625.09-.011.195-.03.291-.056.162-.036.316-.083.508-.117v-.011c-.395 1.32-1.187 2.378-1.654 3.603.297.033.398-.176.528-.327.912-1.102 1.81-2.21 2.732-3.307.208-.257.5-.44.742-.675.255-.246.503-.497.736-.765.08-.08.149-.184.22-.298.058-.093.132-.224.217-.35v.012-.011c.118.31.173.605.195.865.02.245.014.48-.005.709-.006.083-.066.148-.135.234-.005 0-.005.006-.01.006-.08.089-.168.162-.248.234q-.465.415-.943.835c-.47.415-.934.845-1.377 1.297a20 20 0 0 0-1.498 1.67 48 48 0 0 0-1.352 1.797c-.143.206-.33.39-.53.586-.108.095-.22.195-.355.29m7.924-14.931c.112.025.242.011.484.025a14 14 0 0 1-1.768 2.448c-1.025 1.133-2.122 2.163-3.347 3.061-.201.154-.415.274-.63.396-.536.302-1.102.53-1.68.746-.233.08-.46.156-.697.248-.055.017-.116-.006-.22-.006.063-.161.11-.301.165-.43.456-.94.912-1.88 1.369-2.807a216 216 0 0 1 1.858-3.762c.22-.433.456-.854.722-1.273l.212-.301c.28-.39.596-.762.973-1.088-.143.893-.006 1.808-.544 2.64-.215.335-.407.672-.605 1.007-.363.603-.728 1.203-1.08 1.82-.19.312-.366.636-.56.949-.072.117-.155.22-.229.335-.09.117-.168.245-.258.37-.069.104-.165.224-.231.338-.066.095-.146.21-.168.324-.013.12.033.246.21.396.156-.161.323-.318.46-.482a6 6 0 0 1 .416-.503c.88-1.08 1.88-2.02 2.946-2.922.146-.125.275-.279.424-.404.258-.246.527-.475.753-.74.283-.349.585-.508 1.025-.385m15.295-5.746c-.462.153-.789.267-1.113.374-.456.136-.93.25-1.38.415q-.084.028-.168.059c-.4.165-.808.28-1.212.424-1.407.503-2.839.924-4.31 1.2-.975.187-1.929.38-2.899.52-.97.147-1.943.253-2.935.264-.388 0-.786-.044-1.262-.07.069-.267.113-.51.168-.756.058-.262.113-.513.181-.77.215-.709.479-1.412.701-2.124.088-.301.206-.563.352-.82.429-.779 1.05-1.401 1.657-2.051.006-.012.028-.012.058-.012h.13c-.091.232-.171.441-.256.662-.187.438-.366.879-.528 1.32-.014.02.066.092.135.187.06-.05.101-.095.156-.142a1 1 0 0 0 .154-.126c.78-.74 1.542-1.493 2.33-2.224a2.15 2.15 0 0 1 1.073-.53c.055-.017.104-.048.156-.048.443-.081.91-.07 1.38-.07-.822.603-1.649 1.178-2.383 1.884a10 10 0 0 0-.681.742c-.858 1.066-1.751 2.102-2.636 3.151.258.131.407.184.533.179.124-.02.225-.092.363-.257.23-.254.45-.522.679-.765.154-.175.305-.335.475-.5a8.6 8.6 0 0 1 1.284-.881 50 50 0 0 1 2.625-1.482c.29-.148.607-.251.907-.371q.47-.174.934-.302c.322-.092.627-.184.956-.24.105-.022.204-.022.295-.022.39-.014.722.137 1.03.486-.107.106-.19.22-.3.301q-.573.36-1.14.703c-.39.246-.764.492-1.146.718-.866.524-1.74 1.01-2.608 1.507-.218.12-.457.2-.685.293-.112.044-.228.103-.283.198a.24.24 0 0 0-.005.206c.085.224.269.137.428.081.93-.287 1.88-.566 2.801-.901.833-.316 1.65-.698 2.471-1.058.53-.243 1.047-.522 1.575-.77a1 1 0 0 1 .294-.109c.01 0 .033.014.038.014.086 0 .17.022.25.1.424.439.844.868 1.361 1.413m9.537 8.478a.6.6 0 0 0 .168.36c.01.011.052.048.063.059.124.231.275.466.393.695.456.985.256 1.842-.297 2.71-.209.337-.44.641-.676.951-.407.525-.84 1.019-1.369 1.435-.063.047-.15.106-.186.176-.044.07-.05.136.027.231.041.045.132.056.22.056.063 0 .126 0 .165-.022.275-.173.558-.335.822-.511l.15-.098c.199-.12.386-.26.575-.399-.022.05-.038.056-.06.1-.102.283-.187.537-.278.793-.247.65-.264 1.36-.442 2.012a14.4 14.4 0 0 1-2.3-.742c-.344-.134-.68-.282-1.023-.413-.121-.056-.234-.114-.358-.176-.178-.089-.36-.184-.55-.25a2.9 2.9 0 0 1-.8-.42c-.411-.301-.777-.672-1.126-1.063-.12-.14-.256-.27-.377-.418-.115-.132-.23-.257-.324-.394a2.2 2.2 0 0 1-.242-.5c-.019-.072-.044-.125-.066-.187-.118-.413-.23-.834-.343-1.239q-.255-.896-.52-1.78c-.118-.408-.23-.815-.365-1.203-.14-.435-.316-.851-.495-1.256-.074-.195-.16-.39-.247-.6-.16-.36-.327-.731-.484-1.091-.283-.684-.555-1.365-.836-2.038v-.01c.487-.28 1.267-.57 2.045-.79.734-.196 1.482-.35 1.97-.35-.167.316-.323.603-.494.919-.165.304-.343.603-.495.915-.203.43-.274 1.591-.164 2.144.406-.313.417-.832.736-1.15.154-.165.289-.324.437-.51.022-.032.055-.054.077-.099.14-.178.27-.348.412-.51.308-.36.633-.69.979-1.058.288.162.547.315.857.488-.187.558-.36 1.064-.536 1.588q-.135.412-.29.832c-.097.29-.193.57-.268.846-.305 1.09-.574 2.19-.843 3.282-.047.217-.017.468.044.722.918-.761 1.448-1.78 2.028-2.78.585-1.001 1.105-2.037 1.424-3.17.692.257.772.369.67 1.03-.22 1.424-.434 2.86-.687 4.29-.016.067-.044.148-.06.217-.063.252-.149.506-.289.715-.445.72-.794 1.51-1.481 2.057a.7.7 0 0 0-.2.24c-.026.047-.031.114-.053.184.027.039.058.061.096.08.204.216.456.096.687.01.987-.411 1.905-.925 2.63-1.759.108-.128.264-.21.435-.301.071-.034.151-.07.23-.115a3.3 3.3 0 0 1 .226-.843c.258-.664.67-1.275 1.025-1.948.011.023.011.048.033.056m3.623 4.323c-.047.187-.108.383-.149.567-.05.187-.085.382-.145.569-.608 1.694-.715 3.455-.79 5.216-.021.505-.043 1-.068 1.513-.05.73.113 1.457.176 2.199a.5.5 0 0 0 .096.033c.033.012.066.026.09.026.125-.176.32-.363.355-.556.083-.382.14-.762.196-1.155.063-.374.118-.762.197-1.133.193-.885.382-1.778.715-2.596.7-1.755 1.492-3.48 2.254-5.205.096-.206.225-.393.37-.65.166.073.311.131.457.187.149.07.305.14.462.198v.009c-.179.454-.327.812-.462 1.172-.585 1.47-1.149 2.964-1.542 4.496q-.183.658-.31 1.32c-.011.08.016.164.027.24.011.086.014.153.02.234.07.011.123.04.183.059 1.262-2.317 2.48-4.672 4.118-6.813.236.081.434.165.654.235.209.075.434.167.651.24-.365.622-.714 1.225-1.063 1.82-.339.605-.671 1.183-1.004 1.76-.679 1.167-1.327 2.35-1.998 3.52-.057.092-.123.176-.192.265-.072.084-.124.165-.2.254-.07.086-.144.164-.204.257-1.11 1.44-2.292 2.83-3.02 4.53-.04.077-.108.161-.163.245-.063.08-.124.176-.209.265-.077.092-.151.184-.247.298-.704-1.685-1.396-3.173-1.927-4.722-.242-.672-.242-1.476-.203-2.213.101-2.392 1.094-4.46 2.35-6.416.063-.12.15-.234.23-.338.075-.114.157-.228.237-.337.08.178.08.293.058.407m26.423-10.262c-.89.494-1.805.997-2.707 1.482-.486.268-.986.522-1.487.773-.266.131-.53.296-.805.43-.547.29-1.1.58-1.624.918-.495.321-.979.67-1.463.997-.706.496-1.415.988-2.119 1.481-.489.358-.973.707-1.47 1.055-.072.048-.151.09-.23.14a3.2 3.2 0 0 1-.705.349c-.23.056-.467.097-.698.137-.269.033-.522.07-.783.114-.726.12-1.451.193-2.174.142a4.1 4.1 0 0 1-1.234-.245c-.27-.104-.555-.165-.827-.235-.184-.044-.366-.078-.542-.136-.495-.165-.99-.31-1.484-.453-1.399-.432-2.795-.86-4.079-1.618-.376-.235-.81-.338-1.217-.514-.215-.08-.415-.159-.67-.268 1.211-1.875 2.113-3.89 3.954-5.283.055-.042.096-.092.151-.123.069.66.113 1.25.198 1.814.022.182.039.366.074.525.108.43.237.843.377 1.262.027.083.055.162.074.248.157.435.314.865.467 1.298a.45.45 0 0 0 .152.167c.101.084.22.154.294.143.173-.034.225-.12.242-.235.01-.103-.025-.229-.053-.349-.22-.932-.264-1.878-.242-2.81.006-.558.022-1.102.075-1.663.162-1.44.698-2.568 2.045-3.224.555-.27 1.03-.686 1.756-.709-.204 1.06-.283 2.118-.58 3.07-.118.394-.27.773-.495 1.122.05.131.105.229.151.335.113.257.22.488.22.72.055 1.58.613 2.967 1.341 4.31.174.3.35.655.77.61.058 0 .102.014.154-.005.05-.092.104-.165.118-.257a1.1 1.1 0 0 0 0-.441c-.294-1.217.022-2.389.162-3.58.039-.355.157-.72.316-1.053.039-.106.072-.2.124-.304a305 305 0 0 1 3.001-5.317c.462-.812.654-.868 1.644-.519-.646 1.527-.984 3.129-1.231 4.773-.237 1.607-.536 3.198-.198 4.867.291-.223.536-.466.676-.76.67-1.442 1.327-2.893 1.949-4.353.167-.377.3-.776.44-1.166.134-.397.269-.804.409-1.198.26-.717.53-1.437.81-2.199v-.011c.487.092.913.162 1.37.243.052.717.123 1.381.142 2.029.011.31 0 .628 0 .935v.2c0 .324 0 .626.044.938.063.637-.376 1.214-.192 1.934.596-.508 1.539-1.853 1.685-2.511.112-.478.176-.96.258-1.452.08-.485.17-.949.253-1.448.541.458 1.228 1.272 1.85 2.166.673.94 1.272 1.959 1.563 2.712m.75 3.776c.597 1.463.666 3.02.79 4.572.101 1.256.28 2.492.426 3.731.085.779.181 1.552.272 2.316.066.508.022 1.07.209 1.51.376.893.41 1.803.461 2.73.066 1.057.151 2.107.226 3.15.022.246.055.486.489.422.168-1.373.316-2.738.412-4.114.336-4.113.341-8.21-.12-12.36.12.15.186.301.277.463.085.14.22.29.275.452.242.661.401 1.348.547 2.037.044.173.085.335.118.511.135.695.253 1.398.37 2.088.344 2.118.446 4.236.199 6.368-.063.603.063 1.17.343 1.703.237-.092.36-.143.418-.196.072-.044.077-.092.094-.206.063-.444.101-.896.159-1.34.3-2.372.607-4.733.929-7.256.514.452.896.717.838 1.326-.206 2.09.058 4.15.369 6.2.043.288.032.545-.03.79h.005c-.022.093-.094.171-.13.263-.06.15-.101.304-.203.441-1.237 1.842-2.647 3.539-4.098 5.202-.203.243-.44.466-.687.695-.244.218-.492.441-.761.698-1.504-1.231-2.98-2.378-4.392-3.592-1.325-1.15-2.57-2.386-3.87-3.558-.462-.416-.913-.871-1.308-1.354a9.7 9.7 0 0 1-1.048-1.53c-.67-1.219-1.047-2.547-1.38-3.892-.183-.715-.354-1.452-.538-2.163-.063-.28-.058-.547.217-.72.396-.24.794-.489 1.303-.796.349.924.654 1.764.967 2.593.22.578.487 1.133.795 1.652.14.246.266.48.423.709.517.753.956 1.571 1.46 2.341.472.729.989 1.415 1.525 2.175.294-.388.321-.695.178-1.016-.178-.388-.324-.779-.566-1.114-.3-.455-.525-.93-.712-1.429-.307-.773-.527-1.582-.81-2.35-.49-1.334-.71-2.754-1.01-4.155-.027-.126-.054-.257-.082-.383-.016-.058-.016-.114-.016-.175a7 7 0 0 1-.041-.45c.805-.5 1.572-.974 2.49-1.549.176 1.3.412 2.593.692 3.863.828 3.801 2.034 7.446 3.205 11.15.355-.33.473-.464.5-.679a2.2 2.2 0 0 0-.022-.472c-.071-.496-.134-.985-.203-1.473-.06-.486-.13-.985-.2-1.47-.053-.417-.08-.835-.171-1.243-.58-2.579-.764-5.224-.822-7.862-.022-1.043.033-2.093-.53-3.106.52-.265.975-.519 1.399-.75.112.103.173.136.206.186.063.137.113.28.165.416m16.643 1.532c-.242.98-.597 1.946-.698 2.964-.237.656-.468 1.318-.737 1.968-.137.349-.294.684-.47 1.021-.151.307-.319.631-.473.969-.55-.394-1.011-.712-1.434-1.06-1.078-.908-2.056-1.904-2.996-2.937-.93-1.027-1.82-2.107-2.721-3.198-1.374-1.63-2.576-3.38-3.689-5.194-.31-.525-.66-1.018-.953-1.571-.044-.064-.102-.134-.135-.207-.355-.588-.77-1.135-1.149-1.71-.264-.405-.522-.813-.896-1.401 1.036-.118 1.883-.235 2.727-.327a.47.47 0 0 1 .365.117c.02.009.036.023.047.034.096.095.173.229.242.371.354.753.676 1.515 1.047 2.269.574 1.133 1.143 2.291 1.786 3.385.715 1.203 1.52 2.347 2.282 3.52.134.209.258.463.544.29a.33.33 0 0 0 .176-.246c.022-.137-.052-.299-.146-.45-.165-.312-.357-.616-.486-.95A149 149 0 0 1 250.91 7.6c-.22-.614-.424-1.214-.632-1.825-.21-.606-.426-1.206-.635-1.82-.058-.176-.036-.382-.058-.592.638-.106 1.132.034 1.55.394.102.078.203.17.308.29.294.371.563.75.835 1.13.27.372.512.768.754 1.172.23.408.475.799.67 1.231.58 1.306 1.083 2.649 1.589 3.991.258.69.508 1.404.632 2.124.05.327.066.645.093.977.025.48.042.968.07 1.454.016.304.049.471.175.605.124.123.344.196.737.288-.055-1.96-.119-3.89-.13-5.83a12 12 0 0 0-.107-1.446c-.187-1.426-.59-2.802-.962-4.217.517.43 1.036.849 1.462 1.323.047.059.08.137.13.195.338.441.604.935.7 1.563.223 1.507.41 3.026.619 4.533.016.092.038.195.055.287.008.103.025.187.047.29.162-.033.305-.033.316-.086.2-.623.393-1.273.574-1.92.102-.31.195-.614.297-.96.058.061.107.092.146.125q.051.042.057.062c.069 1.007.085 2.003.017 2.991m.725 11.12c-.005.17-.022.342-.033.518a25 25 0 0 1-.327 2.06c-.387 1.934-.81 3.86-1.24 5.794-.324 1.431-.64 2.874-.956 4.323-.05.187-.118.376-.19.597-.12-.081-.22-.115-.25-.176-.184-.296-.365-.6-.55-.901-.444-.751-.862-1.53-1.195-2.342a9 9 0 0 1-.343-.993c-.558-2.082-.86-4.217-.987-6.377a20.8 20.8 0 0 1 .203-4.282c.267.204.396.327.553.394.58.27.767.72.789 1.359.01.494.101.994.173 1.482.046.276.052.566.107.846.38 1.934.654 3.868.693 5.85 0 .303.008.624.005.934-.005.307.052.625.09.927.322.016.485-.092.559-.232.085-.145.096-.349.112-.508.017-.192.022-.393.039-.589.008-.198.025-.416.036-.625.016-.198.022-.396.044-.58.068-.525.15-1.03.225-1.55.146-.985.272-1.986.401-2.963.072-.55.162-1.094.215-1.638.129-1.415 1.09-2.303 1.715-3.42v.012c.132.695.154 1.381.112 2.08m31.94 4.755c.358.212.627.466.869.756.145.162.291.332.407.516.06.095.06.235.049.366 0 .067-.01.137-.016.193q-.193 1.841-.418 3.658c-.022.246-.096.489-.151.779h-.006c-.283-.117-.445-.254-.53-.43a.77.77 0 0 1-.066-.452c.088-.617.104-1.222.088-1.84-.006-.15-.006-.3-.017-.451-.022-.547-.06-1.086-.08-1.636-.033-.463-.082-.91-.129-1.46m-.822-4.248a58 58 0 0 0-1.536-1.122c-.052-.05-.135-.072-.192-.106-.096-.045-.198-.109-.305-.14-.935-.3-1.875-.591-2.81-.87a5 5 0 0 0-.675-.162 6.3 6.3 0 0 1-1.52-.494 4.4 4.4 0 0 1-1.278-.966c-.02-.022-.036-.044-.064-.07-.038-.033-.08-.066-.123-.114-.575-.51-.575-.51-.3-1.345.283.187.547.36.822.533q.418.245.819.522c.093.061.19.125.275.21.214.15.418.315.643.465.096.056.258.023.393.023-.011-.115.016-.246-.033-.35a1.7 1.7 0 0 0-.294-.393c-.753-.834-1.509-1.655-2.251-2.5-.02-.04-.041-.07-.063-.118a.5.5 0 0 1-.08-.206.3.3 0 0 1-.033-.117c0-.165.017-.324.044-.489.014-.173.047-.37.074-.603.676.754 1.438 1.231 1.809 2.071.005.028.027.04.044.062.03.05.068.103.107.142.027.03.058.05.09.075.537.511 1.086 1.013 1.644 1.496.594.5 1.201.985 1.842 1.426.005 0 .005 0 .008.012.104.058.217.12.308.161.112-.061.17-.114.198-.184 0 0 .01 0 .01-.011.006-.033-.016-.08-.021-.12-.017-.033 0-.064-.028-.114a3 3 0 0 0-.316-.391c-.058-.05-.113-.106-.176-.165a2 2 0 0 1-.319-.31c-.475-.616-.912-1.27-1.47-1.825-.401-.388-.761-.831-1.127-1.278a5 5 0 0 1-.289-.421c-.101-.151-.2-.313-.307-.464-.701-.985-1.394-1.981-2.125-2.933-.27-.351-.398-.723-.418-1.272.283.2.53.315.718.49.646.59 1.283 1.192 1.932 1.781.64.595 1.289 1.184 1.918 1.78.473.456.907.93 1.303 1.444.635.806 1.237 1.64 1.858 2.467.3.416.613.82.918 1.239.187.251.333.527.495.806.03.067.046.14.074.201.016.031.027.073.055.09.08.058.176.125.266.198.077.045.14.092.21.117.049.011.087.022.123 0 .071-.025.124-.072.14-.117.039-.092-.016-.198-.074-.31-.033-.061-.066-.112-.08-.162-.088-.206-.178-.43-.258-.65a22 22 0 0 0-.764-1.728 9 9 0 0 0-.649-1.11c-.838-1.192-1.663-2.4-2.54-3.57-.777-1.044-1.63-2.045-2.44-3.08-.011-.012-.011-.057-.011-.076-.006-.028-.011-.04-.011-.09.59.165 1.072.41 1.498.81.069.086.143.156.214.237.053.067.124.112.17.176.432.44.913.82 1.34 1.272.293.302.568.603.846.905q.328.346.64.717c.31.349.627.698.907 1.066.49.622.805 1.393 1.196 2.082l.112.21c.077.139.146.278.237.404.05.059.129.106.209.14q.074.034.134.07c.006-.023.006-.07.017-.104.071-.502-.16-1.747-.423-2.422a1 1 0 0 0-.091-.21c-.215-.404-.443-.834-.668-1.247-.225-.422-.429-.824-.665-1.264.124.027.214.058.316.094.104.031.19.079.275.123.09.05.178.11.242.182.53.62 1.063 1.255 1.52 1.942.164.254.23.603.277.952.017.042.022.092.028.136.214 1.435.214 2.872.033 4.307-.017.08-.017.167-.022.243-.13.884-.215 1.777-.333 2.654a1 1 0 0 1-.06.312.3.3 0 0 1-.011.07c-.02.092-.036.187-.058.29a5 5 0 0 1-.517-.29c-.508-.382-1.02-.754-1.523-1.122m-9.449 12.6c.094 0 .151.01.21.01.065.013.128.013.183.024.053 0 .107.017.157.017q1.102.237 2.22.483c.732.164 1.477.312 2.213.477.204.045.316.103.413.16.156.116.197.292.22.686-1.056.206-2.823-.165-4.159-.824-.607-.29-1.135-.639-1.457-1.032m-2.655-4.297c-.134-.416-.291-.81-.459-1.228-.26-.659-.53-1.31-.794-1.968a1 1 0 0 1-.052-.544c.225.21.489.38.681.614 1.177 1.34 2.567 2.43 3.955 3.544.33.257.668.508 1.026.729.049.03.11.05.184.05h.027q.102.008.226.006a1.26 1.26 0 0 0-.259-.6c-.151-.196-.332-.36-.489-.517-.495-.55-1.094-1.002-1.589-1.535a11.5 11.5 0 0 1-1.245-1.643 8.5 8.5 0 0 1-.643-1.064.5.5 0 0 1-.05-.298c.102-.536.22-1.08.35-1.697h.005c.377.33.591.684.795 1.03a23.4 23.4 0 0 0 3.8 4.82c.515.502 1.067.923 1.669 1.32q.836.575 1.655 1.172c.186.125.36.31.665.03-.157-.17-.286-.346-.44-.494-.77-.767-1.578-1.473-2.276-2.285-.709-.838-1.3-1.764-1.93-2.671-.326-.489-.659-.974-.975-1.463-.618-.923-1.198-1.861-1.66-2.883a1.5 1.5 0 0 0-.143-.276c-.258-.421-.327-.75-.236-1.122.085-.37.327-.756.681-1.23.154.161.333.287.446.466.376.633.75 1.258 1.126 1.886a148 148 0 0 0 2.153 3.553 79 79 0 0 1 2.036 3.371c.03.059.107.117.17.162.056.062.091.115.174.165.118-.765-.314-1.373-.522-2.04-.21-.659-.468-1.31-.699-1.97-.252-.679-.456-1.377-.75-2.035-.291-.63-.665-1.217-1-1.834.566-.08.984.095 1.23.556.268.522.515 1.066.779 1.599.275.522.596 1.035.844 1.571.063.154.123.318.18.483.188.446.361.926.553 1.39.028.092.086.17.157.284.401-.404.423-.843.31-1.306-.236-.982-.505-1.97-.755-2.955-.039-.137-.083-.288-.13-.47.295.076.531.182.693.375a1 1 0 0 1 .193.349c.404 1.482.849 2.944 1.267 4.415.038.114.05.24.038.368-.162 1.72-.332 3.43-.506 5.15a3 3 0 0 1-.033.298 2 2 0 0 1-.052.279c-.151 0-.297 0-.429-.022q-.872-.213-1.734-.408c-.574-.125-1.143-.257-1.707-.382-.58-.115-1.154-.257-1.728-.36-1.182-.218-2.235-.72-3.312-1.209-.558-.237-1-.586-1.284-1.119a3 3 0 0 1-.187-.407m-6.132-5.442v-.011c.316 0 .602.044.863.114.229.072.448.148.652.257.069.022.118.114.16.198 0 .005.01.005.01.017.05.106.094.209.13.32q.232.587.461 1.178c.226.586.445 1.18.72 1.758.305.684.654 1.36 1.036 2.007.377.65.784 1.27 1.196 1.898.146.206.258.452.366.709.049.14.107.276.145.44-.28-.142-.574-.256-.855-.418-1.357-.804-2.693-1.658-3.897-2.687-.294-.252-.418-.497-.338-.868.022-.093.033-.196.044-.313q.031-.23.058-.522c1.085.835 1.789 1.948 2.76 2.824.14-.281-.015-.446-.113-.628-.707-1.247-1.427-2.486-2.13-3.736-.163-.29-.237-.626-.372-.938-.14-.327-.283-.653-.45-.96-.053-.11-.13-.207-.21-.318-.062-.095-.15-.207-.236-.332zM268.38 8.074c-.017.5-.033.835-.044 1.184-.033.485-.085.97-.085 1.462 0 .059-.006.123-.006.184.017.43-.022.854-.022 1.298-.022 1.515-.118 3.022-.36 4.53-.16.979-.321 1.967-.514 2.944-.2.965-.431 1.928-.77 2.877-.128.385-.293.74-.48 1.183-.223-.15-.432-.279-.635-.407-.226-.154-.445-.285-.66-.452-.547-.416-1.074-.865-1.616-1.295-.107-1.423-.209-2.769-.209-3.731-.027-.307-.022-.606-.044-.913.085.193.179.393.292.578.676 1.172 1.335 2.377 2.006 3.58.198-.198.31-.326.344-.455.032-.114-.011-.242-.113-.43-.162-.3-.316-.597-.478-.906-.102-.204-.21-.41-.294-.617-.19-.489-.28-1.01-.377-1.535a58 58 0 0 1-.478-3.006c-.025-.33-.025-.659-.025-.996 0-.33.003-.662.036-.985.027-.338.044-.673.096-.994q.034-.165.082-.296c.124-.377.374-.63.8-.806.069.125.149.25.182.382.085.441.178.888.263 1.328.091.453.193.896.273 1.348.184.991.338 1.99.5 2.987.038.256.033.508.038.762.011.13.017.242.08.326a.25.25 0 0 0 .192.084c.237 0 .215-.207.22-.388.044-.98.124-1.979.124-2.97 0-.904-.063-1.81-.13-2.729-.04-.575-.123-1.178-.175-1.758a.9.9 0 0 1 .01-.313c0-.014.017-.022.017-.036a.3.3 0 0 1 .187-.207c.542-.256 1.091-.494 1.773-.812M270.3 26.7c.698 1.357 1.29 2.769 1.696 4.242.069.246.118.48.151.74.09.614.118 1.242.113 1.867 0 .243 0 .494-.011.74 0 .058-.033.1-.085.192a4 4 0 0 1-.33-.296c-.712-.753-1.421-1.507-2.136-2.257a164 164 0 0 1-2.833-3.06c-.328-.356-.64-.728-.935-1.127a2 2 0 0 1-.209-.31c-.27-.404-.511-.823-.676-1.297.772.438 1.674.625 2.265 1.423.225.315.473.614.709.921.445.555.874 1.11 1.32 1.652q.345.433.692.854c.08.11.15.224.23.338.08.126.174.246.254.371.068.12.145.235.23.335a.8.8 0 0 0 .242.268c.107.056.242.056.435-.061-.097-.207-.168-.416-.284-.6-.118-.187-.222-.377-.335-.564-.687-1.22-1.217-2.5-1.68-3.815-.057-.185-.159-.358-.236-.542-.14-.326-.252-.664-.423-.974-.22-.39-.27-.728-.01-1.11.062-.093.1-.224.186-.441a14 14 0 0 1 1.66 2.511m.209-11.01c1.204 2.671 2.68 5.172 4.354 7.547q.838 1.185 1.734 2.33c.283-.114.225-.279.146-.427-.336-.664-.652-1.334-.995-1.995-.305-.575-.605-1.147-.704-1.828-.047-.34-.261-.664-.407-.994-.225-.502-.445-.996-.67-1.51-.36-.809-.699-1.635-1.092-2.42-.48-.984-.992-1.958-1.162-3.07-.011-.102-.033-.206-.044-.315 0-.044.022-.078.052-.187.35-.02.72-.03 1.13-.064.013.824.428 1.432.789 2.082.918 1.625 1.748 3.293 2.327 5.071.094.293.22.558.339.823.14.33.274.642.404.963.14.327.272.65.412.977.066.134.102.226.156.296.097.106.21.156.536.226-.604-2.682-1.19-5.344-2.044-7.962a39 39 0 0 0-.976-2.596c.761 0 1.404.017 2.072.017l.132.287a.4.4 0 0 1 .05.115q.048.128.096.268c.316.949.692 1.9.874 2.883.107.575.27 1.15.354 1.724.072.386.108.757.083 1.14-.033.287.025.585.058.887.027.245.15.415.472.55.055-.668.118-1.265.146-1.89.03-.65 0-1.312.041-1.96.017-.194.011-.379 0-.577a8 8 0 0 0-.107-1.298c-.113-.628-.22-1.242-.35-1.945.427 0 .754 0 1.081.011.231 0 .333.154.39.344.152.513.303 1.016.46 1.518.277.94.524 1.886.563 2.872q.008.665-.1 1.322c-.062.441-.17.885-.304 1.307-.366 1.186-.682 2.4-1.075 3.594-.418 1.264-.901 2.498-1.374 3.799-.25-.053-.481-.093-.706-.14a7 7 0 0 1-.671-.16c-1.479-.476-2.938-.987-4.354-1.635-.112-.064-.195-.136-.286-.195-.054-.05-.123-.072-.17-.114a1.4 1.4 0 0 1-.302-.475c-.547-1.362-1.127-2.704-2.001-3.896-.253-.357-.124-.661.03-1.124 1.102 1.417 2.138 2.735 3.175 4.069.197.254.373.508.574.748.047.06.08.094.132.094.055.014.151-.005.33-.033a2.2 2.2 0 0 0-.404-1.172c-.924-1.206-1.61-2.523-2.169-3.935a72 72 0 0 1-.525-1.39 11 11 0 0 1-.118-.36c-.151-.477-.308-.95-.398-1.451-.028-.115.005-.252.005-.369 0-.137-.027-.24.011-.377m17.92-11.922c-.118.159-.212.28-.302.416-.193.245-.418.485-.564.756-.505.932-1.195 1.722-1.899 2.504-.247.256-.49.535-.731.806-.08.1-.181.193-.283.288-.146.14-.291.293-.415.44a2.9 2.9 0 0 1-.66.617c-.418.302-.896.52-1.38.726-.173.058-.338.142-.51.212q-.23.1-.476.176c-.173.042-.36.05-.555.05h-.182c-.423-.03-.855-.067-1.272-.092-.613-.042-1.212-.073-1.82-.112-.418-.022-.833-.056-1.245-.07-.44-.01-.885.014-1.322.048l-.632.033c-.404.034-.789.07-1.193.081-.723.045-1.448.073-2.174.104h-.005c-.086-.567-.086-1.401-.02-2.225.058-.773.182-1.526.35-2.003.225.27.456.521.67.79.225.267.45.544.682.784.327.346 1.38.812 1.926.893-.15-.497-.635-.692-.81-1.103-.091-.192-.21-.38-.317-.575-.022-.033-.044-.08-.071-.114-.113-.198-.23-.382-.344-.567-.208-.421-.4-.837-.632-1.297.248-.207.479-.422.745-.65.445.354.866.7 1.295 1.038.225.2.445.385.67.572.226.198.457.38.687.555.902.648 1.82 1.284 2.738 1.909.195.128.431.187.692.22-.395-1.133-1.154-1.992-1.871-2.882-.737-.905-1.52-1.761-2.46-2.448.473-.578.613-.611 1.182-.299 1.245.71 2.495 1.407 3.735 2.13.066.036.124.083.184.128.214.15.418.327.574.536.503.656 1.122 1.261 1.377 2.107a1 1 0 0 0 .157.262c.039.062.102.084.162.118.042-.009.069-.034.102-.045.267-.142.247-.421.242-.656-.033-1.091-.206-2.149-.731-3.12-.074-.14-.096-.327-.118-.516a5 5 0 0 0-.039-.257c-.256-.131-.48-.315-.7-.502-.517-.475-.946-1.072-1.446-1.653.44-.254.876-.178 1.305-.223 1.064-.103 1.792.382 2.405 1.203.242.315.445.65.643.974.355.572.665 1.158.866 1.806.02.08.047.164.096.231.041.062.118.095.225.05.047-.025.097-.106.13-.19a.5.5 0 0 0 .035-.17c-.068-.31-.123-.641-.192-.96-.006-.058-.028-.103-.039-.161a10 10 0 0 0-.225-.916c-.036-.106-.096-.234-.143-.34-.151-.374-.338-.745-.528-1.178.044 0 .083.011.135.011 1.622.176 2.889 1.052 4.296 1.75m7.465 11.42c-.113-.036-.182-.056-.261-.092-.077-.025-.157-.059-.22-.08-.066-.037-.135-.06-.184-.096-1.058-.765-2.276-1.155-3.474-1.635-.058-.02-.138-.053-.21-.076q-.108-.034-.214-.07c-.074-.038-.14-.06-.208-.094-.833-.452-1.65-.938-2.469-1.401-.426-.235-.832-.46-1.253-.698-.423-.226-.846-.46-1.292-.7.091-.132.21-.268.305-.388.102-.137.198-.252.305-.394 1.773.698 3.356 1.666 4.945 2.618.038-.034.066-.081.09-.115-.013-.047-.046-.092-.057-.14-.033-.058-.039-.116-.074-.15a10 10 0 0 0-.657-.692c-.8-.79-1.674-1.482-2.553-2.154-.215-.18-.437-.338-.71-.55l.21-.282c.063-.092.134-.204.208-.299.179.095.327.179.462.26 1.086.781 2.185 1.518 3.232 2.316.5.383.935.854 1.369 1.32.181.198.36.405.525.617.184.218.349.424.533.636.102.104.278.137.423.207a.2.2 0 0 1 .044-.053 1 1 0 0 1 .041-.062c-.225-.463-.395-.974-.681-1.403a45 45 0 0 1-.58-.89c-.687-1.042-1.385-2.063-2.361-2.872-.102-.092-.192-.196-.286-.29-.102-.104-.198-.196-.294-.288a.42.42 0 0 1-.113-.268v-.011c.08.044.176.08.264.125.091.034.176.07.267.12 1.468.723 2.809 1.608 3.732 3.02.283.441.57.924.665 1.429.231 1.133.35 2.289.53 3.575"/></g></svg>