<svg xmlns="http://www.w3.org/2000/svg" width="251" height="46" viewBox="0 0 251 46"><title>emanuele corazzini2</title><g fill="#1a1919" fill-rule="evenodd"><path d="M10.4 15.68c.105-1.585 1.92-1.832 2.88-2.4.996-.59 2.172-1.322 3-2.28 1.74-2.014 3.23-6.772.12-8.4-1.4-.733-3.706-.644-4.92-.24-1.432.476-3.343 1.894-4.32 3.12-2.114 2.652-3.76 8.087-1.8 12 .819 1.636 2.746 3.59 4.32 4.44.6.324 1.69.437 1.8.96.163.775-1.243 1.28-1.92 1.8-1.873 1.441-4.18 4.154-4.56 6.96-.293 2.161.13 3.986 1.2 5.16 3.407 3.737 8.669-.869 10.08-3.24.213-.359.232-1.336.96-1.2.957.424-.102 2.144-.48 2.88-1.486 2.891-4.52 6.168-8.4 6.36-4.382.217-6.875-3.107-7.2-6.96-.413-4.893 2.456-8.44 5.28-10.56-6.965-1.942-7.144-12.092-3.6-17.76C4.98 2.896 7.808.333 12.8.2c4.24-.113 8.933 1.984 9 6.6.087 5.933-5.917 8.906-11.4 8.88"/><path d="M114.32 22.52c-2.252-1.362-3.48 1.999-3.48 4.44 2.214.114 4.122-1.693 3.48-4.44m-25.56 4.32c2.476.406 4.77-2.827 3.12-5.04-2.642.078-2.734 2.706-3.12 5.04m14.88-9.36a24 24 0 0 0 1.32-6.72c.073-1.672-.032-6.428-1.92-4.56-2.85 2.819-2.281 10.953-2.28 16.2 1.252-.869 2.148-2.872 2.88-4.92m3.96 13.44c-1.255-5.415 1.397-11.23 6.6-11.28 4.108-.04 4.913 5.195 2.16 7.44-1.623 1.324-3.443 1.399-5.64 1.8.323 3.514 4.478 3.995 7.32 2.64.979-.466 1.662-1.557 2.64-1.32-.247 1.557-2.536 3.503-4.56 4.2-2.862.986-6.545-.278-7.92-2.28-1.364 1.354-2.59 2.696-4.92 2.52-2.477-.187-3.205-2.441-4.32-4.08-.793.597-1.203 1.6-2.04 2.28-2.861 2.324-8.404 2.824-10.44-.48-1.468 1.972-6.301 3.764-7.68.48-1.396.983-3.463 2.08-5.4 1.2-.82-.373-1.161-1.113-1.8-1.68-.902 1.746-4.076 3.492-6 1.8-2.052-1.806-2.437-6.76-2.76-10.08-1.116 1.147-1.692 3.079-2.52 5.64-.538 1.665-1.03 5.503-2.88 5.28-1.373-.165-1.064-2.191-1.56-3.48-1.262 1.114-3.082 3.637-5.76 3-.997-.238-1.446-1.271-2.04-2.16-1.034.41-1.863 1.641-3.24 1.8-1.885.218-3.177-.885-3.84-2.4-1.254 1.589-3.951 3.773-6.12 2.04-2.123-1.697-2.236-6.447-2.88-9.48-.891 1.301-1.357 3.243-1.92 5.16-.477 1.625-.818 4.488-2.4 4.56-1.543.071-1.975-2.548-2.28-3.96-.42-1.946-.487-3.738-.84-5.4-.737 1.122-1.085 2.751-1.56 4.44-.358 1.275-.557 4.043-1.68 4.32-2.54.626-2.87-7.317-3-9.6-.173-3.048-.224-6.825 3.24-5.64.306 2.457-.527 6.503.12 9.36.716-1.016.976-2.773 1.56-4.56.518-1.587 1.116-5.199 3.24-4.2 1.214.571 1.014 3.035 1.2 4.8.203 1.93.423 3.64.72 5.16.738-.483.908-1.671 1.2-2.64.288-.956.555-2.058.84-2.88.495-1.425 1.363-4.574 3-4.44 1.933.159 1.662 4.544 1.92 6.72.285 2.402.888 6.065 2.28 6.36 1.384.293 2.088-.945 2.88-1.68-.232-5.166 3.108-10.94 7.08-11.28 1.245-.107 2.116.311 2.76 1.08-.025.575.119 1.319-.24 1.56-1.754.158-1.788-.818-3-.72-2.7.219-4.448 6.807-3 9.12.815 1.302 2.449.81 3.6 0 .462-2.618.977-5.183 2.76-6.48.822.495.107 1.488 0 2.52-.177 1.716-.165 4.351.96 5.04 1.432.878 3.433-.187 4.2-1.32.025-3.913-2.083-12.448 3.36-10.56-.22 3.021-.784 6.335-.36 9.6.608-.121.472-.949.6-1.32.994-2.878 2.269-6.38 4.8-7.92 1.653.09 1.733 2.426 1.92 4.32.333 3.371.419 8.289 2.4 8.64.922.164 2.457-.884 2.64-1.68.12-.527-.212-1.226-.24-1.8-.158-3.279 1.474-6.408 3.12-8.28.43-.489.816-1.31 1.56-1.2.714 1.136-.894 2.725-1.32 4.68-.471 2.162-.47 6.561 1.56 7.08 1.22.312 1.949-.35 2.64-.84-.122-2.929.71-5.222 1.56-7.32.552-1.364 1.086-2.878 2.16-3.48.922.41.239 1.832 0 3.12-.44 2.367-1.871 9.054 1.56 9.12.938.018 1.449-.402 2.04-.96-1.504-4.996 1.207-10.827 5.76-11.52 2.66-.405 4.99 1.324 4.56 4.56-.424 3.194-3.845 4.515-7.2 4.8.32 3.669 4.316 4.077 7.2 2.76 1.057-.483 1.714-1.646 2.76-1.44-1.873-5.977-2.75-18.618.6-23.76 1.007-1.546 4.147-3.652 6.6-1.92 1.548 1.093 1.83 3.328 1.68 5.76-.268 4.308-1.913 8.897-4.08 12-.633.906-2.22 2.016-2.4 2.88-.3 1.444 1.062 5.477 2.16 6.6 1.232 1.26 3.262 1.029 4.32-.72M138.44 20.48c-.076-.959 1.1-.82 1.56-.96 3.675-1.116 7.423-4.628 7.919-9 .723-6.364-7.07-5.003-9.96-2.64-5.016 4.102-7.707 19.51-4.08 26.16 1.228 2.25 4.187 4.502 8.16 3.24 1.548-.491 2.627-1.485 3.6-2.64.327-.387.602-1.229 1.44-1.32.322 1.625-.912 3.186-1.92 4.08-3.895 3.458-11.453 2.59-14.16-.96-1.703-2.235-2.371-5.894-2.4-9.24-.091-10.586 4.21-21.831 13.92-22.56 4.404-.33 8.752.967 8.76 5.76.009 4.306-3.274 7.496-6.24 9-.834.424-2.09.94-3.12 1.2-1.025.259-2.604.776-3.48-.12M242.12 18.2c-1.68-1.867 1.722-6.663 3.24-4.2 1.044 1.693-.84 5.476-3.24 4.2M218.84 14.6c2.986-.467 1.475 4.844-1.08 4.32-2.393-.49-.387-4.09 1.08-4.32M175.64 31.28c-.427-5.029 3.21-10.308 7.08-10.68 1.716-.165 3.8.89 2.4 2.52-1.394.006-1.729-.84-2.88-.72-2.875.3-4.768 6.776-2.4 8.88 1.411.132 2.317-.244 3-.84.396-2.285 1.253-4.747 2.64-5.64.984.167.327 1.085.24 1.68-.185 1.265-.292 3.28.24 4.2.638 1.106 2.68 1.335 3.84.36 1.34-1.127 1.486-4.163 2.28-6 .99-2.29 3.831-6.715 7.2-4.2 2.971 2.22 1.722 7.856-.72 9.84.293.695 1.084.86 1.56 1.32 3.804 3.684 3.101 11.985-2.76 12.96-2.289.381-6.314.133-6.96-1.92 2.238-1.01 2.93 1.265 5.52.96 3.088-.365 4.09-4.354 2.88-7.44-.764-1.95-2.653-2.788-3.84-4.08.736-2.208 3.582-3.445 2.76-6.96-.183-.777-.767-1.638-1.56-1.68-2.389-.127-2.95 5.16-4.2 6.84-1.886 2.536-6.717 5.938-8.76 2.04-1.617 1.502-5.626 2.326-6.96 0-1.045.382-1.469 1.17-2.4 1.44-5.624 1.63-6.694-4.83-5.28-9.36-.379-.582-1.362-.558-1.92-.96-.608 2.503-1.586 5.065-3 6.84-.578.725-1.485 1.782-2.52 1.8-.312-1.169.577-1.312 1.08-2.28.79-1.519 1.61-4.133 1.44-6.36-.097-1.27-.826-2.514-.36-3.6.683-1.592 2.732-.748 3.12.84 1.852 1.054 5.38.075 5.88 2.4.423 1.97-1.616 4.841-.72 7.32.434 1.202 2.585 1.801 4.08.48"/><path d="M210.92 30.8c1.931 1.312 3.69 3.586 3.96 6.48.47 5.032-2.37 8.9-8.16 8.4-1.67-.144-3.743-.645-3.96-2.16 1.567-1.412 2.721.714 3.96.96 5.331 1.063 6.162-6.367 3.48-9.6-.913-1.1-2.19-1.42-2.88-2.4.64-1.652 2.586-3.026 2.88-5.16.231-1.69-.449-3.516-1.8-3.48-1.742.047-2.386 3-3 4.68-.36.983-.877 1.718-1.44 2.4-.532.644-1.123 1.65-2.04 1.56-.329-1.043.726-1.93 1.2-3.12 1.164-2.925 1.916-6.575 4.08-8.28.875-.691 1.902-.926 3.36-.72 4.361 1.667 3.05 8.03.36 10.44"/><path d="M245.48 20.84c-1.508 2.168-3.569 7.013-1.561 9.84.592.832 1.91 1.506 3.601 1.08 1.371-.345 2.181-1.644 3.359-1.8-.488 3.899-7.313 6.324-10.079 2.64-1.482 2.068-4.685 2.808-6.48.84-1.687-1.85-1.664-5.21-2.16-8.16-.999.964-1.62 2.574-2.4 4.68-.649 1.755-.839 5.484-3.6 4.68-.499-.74-.737-1.743-.84-2.88-1.344.949-2.67 2.527-5.04 2.64-6.47.308-6.153-7.491-3.361-11.16.885-1.162 2.176-2.644 3.361-2.28-.474 1.564-2.223 3.409-2.28 6.24-.046 2.323.94 4.802 3.6 4.68 1.51-.07 2.522-.924 3.48-1.8-.333-3.428-1.676-10.945 3.24-9.36-.054 2.496-.78 6.124-.361 8.76 1.028-1.332 1.349-3.021 2.281-4.8.574-1.096 3.077-5.405 4.56-2.88.802 1.365.504 5.108.84 6.96.556 3.068 2.233 5.034 4.56 2.52-.761-5.461 1.789-8.595 4.56-10.92.421-.021.395.405.72.48M152.36 20.48c.415-.095.507.133.72.24-.146 1.3-1.367 2.464-1.68 4.2-.554 3.082.977 7.712 4.44 6.96 3.305-.718 2.705-5.675.48-7.2-.868-.595-2.222-.444-2.76-1.44.214-2.794 3.695-3.108 5.28-1.56.833.814 1.835 3.166 1.92 4.8.21 4.07-2.403 8.106-7.2 7.92-3.653-.142-5.047-2.934-5.28-5.64-.384-4.446 2.029-6.445 4.08-8.28"/></g></svg>