<svg xmlns="http://www.w3.org/2000/svg" width="1756" height="54" viewBox="0 0 1756 54"><title>spacer-hops</title><g fill="none" fill-rule="evenodd"><path fill="#003d32" d="M917 18.803c.003-.051-.021-.11-.037-.162-.207-.646-.42-1.285-.615-1.939-.079-.257-.158-.518-.182-.781a9 9 0 0 0-.508-2.251 1.2 1.2 0 0 0-.144-.284 8.7 8.7 0 0 0-1.841-1.933c-.091-.071-.18-.154-.281-.233-1.08-.634-1.77-.904-1.77-.904s.43-.95.467-1.112c.029-.138.216-.312-1.529-1.046q-.002.002-.003-.007-.379-.153-.888-.355a7.3 7.3 0 0 0-1.145-.323c-2.496-.713-4.241-.616-6.641.265h.003c-.279.072-.495.143-.61.212-1.122.697-2.069 1.611-3.094 2.424a2.5 2.5 0 0 1-.688.386c-1.146.41-2.209.953-3.204 1.652-.27.189-.49.427-.734.646a14 14 0 0 0-.839-1.224c-1.015-1.358-2.235-2.527-3.551-3.606a2.7 2.7 0 0 0-.773-.44c-.781-.29-1.597-.4-2.431-.458a19.1 19.1 0 0 0-5.074.329c-.36.072-.751.084-1.114.033-1.835-.24-3.652-.66-5.511-.69-.195.007-.507.074-.892.18h.004c-3.548.678-5.729 1.842-8.232 4.51-.432.4-.827.797-1.148 1.223-.32.406-.587.762-.816 1.072h-.004v.012a16 16 0 0 0-.693 1.016c-.292-.526-.566-1.042-1.008-1.564-.165-.233-.306-.407-.41-.496-1.04-.804-2.223-1.386-3.343-2.07a2.2 2.2 0 0 1-.592-.518 13.8 13.8 0 0 0-2.653-2.435c-.48-.333-.981-.64-1.54-.828a2 2 0 0 0-.624-.102c-1.203.007-2.397.116-3.562.408-.755.19-1.515.386-2.105.92-.186.168-.37.375-.46.59-.212.563-.6.969-1.015 1.402-.82 1.004-2.852 2.852-3.291 3.971-.125.393-.251.78-.395 1.128-.322.771-.641 1.533-1.033 2.262-.38.713-.853 1.379-1.288 2.062-.028.053-.069.09-.099.131-.138.235-.049.438.225.445.186.007.374-.036.557-.064.18-.023.367-.051.618-.081-.039.138-.08.27-.11.396-.206.66-.584 3.472-.649 5.256.037 1.03-.158 2.086.162 3.102a.5.5 0 0 1 .026.117c.076.503.14 1.006.22 1.512.03.191.096.379.147.561.54.109.953-.279 1.497-.31-.064.58-.128 1.107-.184 1.641-.016.144-.072.296.1.354.583-.404 1.22-.658 1.938-.888-.03.366-.06.678-.087.99-.027.29-.006.313.277.366.474.093.93-.053 1.38-.147.748-.153 1.473-.379 2.206-.559.5-.13.985-.258 1.37-.625.075-.072.216-.086.328-.104.144-.02.292-.005.437-.02a17.2 17.2 0 0 0 5.632-1.47c.323-.144.642-.305.992-.47-.028.208-.044.37-.076.524-.04.273-.093.55-.126.834-.01.066.016.175.061.203.051.03.144-.007.22-.028.05-.016.093-.051.133-.08.543-.423 1.075-.843 1.619-1.25.212-.154.428-.32.665-.433a8.8 8.8 0 0 0 1.958-1.247c.075-.067.15-.147.212-.233.385-.54.634-1.156.888-1.766.127.349.185.725.353 1.067.162.33.255.7.346 1.06.237.932.446 1.873.665 2.801.025.072.036.16.072.22.06.087.136.21.216.216.08.016.2-.085.255-.173.212-.336.4-.68.6-1.028.11-.188.23-.382.383-.63.24.495.45.947.669 1.395a24.3 24.3 0 0 0 4.877 6.596c.147.142.317.27.461.412.104.124.248.264.269.41.088.75.51 1.324.943 1.895.644.852 1.24 1.747 1.92 2.577.415.503.785 1.06 1.385 1.388.36.189.404.182.634-.16.248-.364.497-.737.774-1.156.59.878 1.064 1.713 1.338 2.69.251.085.323-.14.432-.308.409-.63.816-1.264 1.262-1.951.558.506.672 1.3 1.36 1.662.224-.162.464-.304.67-.495.535-.48 1.053-.974 1.581-1.458a.6.6 0 0 1 .134-.103c1.26-.84 1.982-2.162 2.942-3.268 1.518-2.012 3.602-5.437 3.973-6.34q.108-.261.226-.529c.248.254.422.45.6.642.178.189.346.396.552.555.312.235.59.098.646-.282.005-.079 0-.154.005-.226.135-1.14.214-2.288.427-3.418.22-1.14.554-2.269.881-3.388.153-.522.363-1.046.569-1.598.14-.427.195-1.018.205-1.68.529 1.04 1.108 2.123 1.645 2.595.334.262.65.502.934.767.602.557 1.224 1.118 1.77 1.734.547.605 1.01 1.276 1.508 1.917.033.045.058.091.09.135.17.212.389.187.492-.06.072-.166.09-.354.134-.541.039-.186.079-.36.126-.613l.334.247c.555.413 3.072 1.73 4.731 2.402.985.324 1.903.861 2.98.907.038 0 .075.005.12.012.494.112.987.22 1.49.316.197.043.396.043.584.057.286-.474.066-.998.216-1.511.531.259 1.009.492 1.488.732.123.066.248.175.374.03-.188-.69-.209-1.374-.175-2.125.323.154.614.292.895.424.265.122.295.113.442-.132.248-.424.265-.893.334-1.352.112-.745.144-1.505.223-2.262.054-.503.102-1.002-.118-1.49-.04-.094-.007-.234.014-.35.028-.138.093-.276.13-.411.515-1.9.69-3.826.546-5.783-.024-.356-.068-.704-.103-1.098.186.103.326.177.466.254.243.133.49.276.741.403.058.028.174.049.216.014.044-.037.044-.14.048-.212m-31.114 9.642c0-.007.004-.007.004-.018-.007-.093-.007-.173.035-.233.112-.163.24-.33.388-.485.17-.175.367-.342.616-.494-.007.145-.024.261-.033.371a2 2 0 0 0-.018.328c.014.319.051.63.093.943.037.297.134.59.14.88.034 1.28.041 2.56.066 3.834 0 .173-.042.378.191.524.363-1.122.391-2.283.844-3.42.113.137.202.263.285.37q.09.113.18.212c.234.248.245.487.134.821-.455 1.339-1.104 2.602-1.789 3.839-.133.257-.309.48-.467.721-.04-.145-.058-.278-.086-.406a4 4 0 0 1-.044-.708c.035-.67.058-1.328.058-1.999 0-.669-.03-1.336-.105-1.997a29 29 0 0 0-.255-1.673c-.065-.371-.133-.743-.188-1.112-.014-.098-.035-.198-.049-.298m-4.926 13.649a1 1 0 0 1 .246-.316q.743-.696 1.496-1.398.744-.698 1.494-1.385c.031-.028.072-.06.107-.088.035-.03.086-.067.133-.095.046-.036.09-.064.158-.117-.072.452-.323.958-.655 1.466-.733 1.118-1.924 2.213-2.838 2.548-.162-.305-.206-.458-.14-.615m-5.593-4.19a.9.9 0 0 1-.14-.3c-.35-1.307-.68-2.625-1.036-3.932a.9.9 0 0 1-.02-.357c.041-.224.174-.412.37-.611l.113.415c.257.872.5 1.736.76 2.603.132.401.355.729.845.846 0-.117.01-.208-.004-.29-.071-.439-.15-.875-.226-1.32l-.065-.443c-.058-.524-.037-1.055-.072-1.58-.032-.527-.096-1.051-.12-1.575-.027-.475.213-.795.692-.995.021.618-.003 1.249.058 1.853.08.638.24 1.265.357 1.889.117.611.223 1.23.365 1.834.133.601.08 1.265.527 1.79.042-.068.042-.14.06-.204.022-.074.06-.142.057-.214a70 70 0 0 1 .026-3.497c.04-1.23.046-2.465.046-3.702.007-.644.007-1.3.01-1.953 0-.182.076-.363.12-.568.504.205.864.386 1.1.626.234.233.336.529.322.962 0 .09.004.187.018.28.107.983.093 1.97.045 2.959-.028.515-.063 1.033-.096 1.557-.069.974-.1 1.964-.267 2.922-.162.948-.47 1.863-.715 2.793-.047.19-.072.38-.109.581.364.076.408-.143.497-.332.244-.554.483-1.106.748-1.654.281-.573.511-1.153.683-1.778.472-1.784.727-3.586.73-5.426 0-.357.01-.736.148-1.147q-.001.004.005.003v-.003c.381.408.715.76 1.04 1.124.057.06.1.169.1.256.026.37.013.736 0 1.104a12 12 0 0 1-.22 1.822c-.13.643-.395 1.254-.528 1.894-.048.203-.113.406-.14.632-.025.175-.011.366.078.576q.091-.065.169-.11c.003-.005.012-.012.012-.012.003 0 .003-.01.003-.01a.3.3 0 0 0 .122-.118c.166-.333.32-.682.458-1.036.567-1.48 1.146-2.955 1.438-4.518.05-.268.165-.523.245-.786.139.16.183.3.204.438.095.627.191 1.249.295 1.876.058.378.12.755.202 1.135.03.137.037.27.044.4.02.53-.158.996-.48 1.445-.61.867-1.197 1.73-2.006 2.45-.393.35-.778.714-1.162 1.076q-.582.535-1.148 1.078c-.385.371-.78.743-1.163 1.107-.093.084-.209.147-.323.22-.068-.073-.123-.118-.168-.176q-.085-.111-.16-.22a909 909 0 0 1-2.744-3.678m-2.935.77c.003-.198.039-.387.072-.58a3 3 0 0 1 .333-.983c.213.435.374.808.57 1.169.23.422.449.851.675 1.282q.1.173.199.349c.263.47.554.937.909 1.358a.65.65 0 0 1 .156.38c.018.168-.04.347-.216.564-.177-.19-.342-.338-.48-.514a360 360 0 0 1-2.097-2.725c-.065-.104-.128-.198-.121-.3m-6.048-9.898c.033-.725.158-1.458.281-2.18.014-.089.065-.16.11-.238a.8.8 0 0 1 .152-.226c.061-.071.119-.147.198-.212.025.444.04.845.061 1.258.018.42.04.853.062 1.267 0 .058.014.13.024.2.099.62.494 1.681.789 2.037.017.025.035.053.05.068.022-.036.05-.084.069-.112a.5.5 0 0 0 .104-.215c.014-.133 0-.27-.007-.408v-.212c-.018-.713-.12-1.437-.03-2.136.05-.417.13-.825.209-1.237.054-.285.108-.56.17-.837.079-.365.158-.717.24-1.083.116-.53.323-1.047.443-1.578.014-.072.044-.147.054-.22.021-.09.05-.18.069-.274.14-.503.402-.917.786-1.316.012.035.016.053.03.072.01.02.032.052.028.063-.161 1.16-.353 2.314-.477 3.48-.144 1.292-.234 2.585-.329 3.883-.028.385-.02.77.004 1.146.037.56.112 1.116.198 1.659.035.212.065.413.097.62.007.047.014.102.014.15.002.114.016.23.084.284.039.02.09.037.162.02.031-.004.061-.028.093-.062a.8.8 0 0 0 .105-.173c.046-.096.082-.207.125-.287.01-.021 0-.05 0-.086a1 1 0 0 1-.032-.19c-.003-.283-.026-.569 0-.846.046-.453.107-.905.155-1.364.096-.91.186-1.824.301-2.733a11.6 11.6 0 0 1 .35-1.694c.209-.755.446-1.5.672-2.248.223-.75.44-1.505.669-2.255.069-.219.202-.42.339-.699.23.431.302.768.25 1.158-.127 1.067-.201 2.138-.298 3.215-.014.165-.014.333-.02.501a4 4 0 0 1-.034.452 14 14 0 0 1-.283 1.494c-.18.678-.223 1.369-.303 2.06-.018.13-.064.263-.104.391a2.075 2.075 0 0 0-.126.65c0 .04.019.065.03.095.014.035.014.079.042.107h.01c.051.037.127.058.232.044.046-.08.114-.167.161-.263 0-.005.007-.014.007-.021a18 18 0 0 0 .766-1.927c.22-.627.407-1.265.593-1.898.009-.028.016-.073.03-.101.014-.051.018-.11.025-.161 0-.021.007-.042.007-.065-.104-.813.27-1.528.446-2.416.133.161.238.303.335.422.1.126.182.235.251.35.016.03.026.074.04.11a.8.8 0 0 1 .032.197c0 .039.003.08 0 .118-.19.979-.402 1.956-.6 2.934-.032.145-.058.3-.046.445.003.093.09.182.142.278.095-.068.235-.11.284-.205.11-.213.192-.429.281-.657.044-.094.076-.185.12-.275.126-.259.261-.523.398-.776.134-.264.26-.518.39-.777.59.494.59.494.388 1.154-.021.05-.033.102-.047.147q-.009.039-.018.072c-.1.492-.291.93-.55 1.323a5.2 5.2 0 0 1-.946 1.086q-.233.203-.447.434c-.59.654-1.19 1.31-1.777 1.964-.065.072-.11.165-.168.252-.03.06-.08.104-.102.169-.23.516-.45 1.038-.673 1.564-.223.517-.45 1.039-.669 1.552-.064.154-.154.286-.258.466a5 5 0 0 0-.18-.187c-.014-.014-.029-.035-.046-.051a2 2 0 0 1-.188-.212c-.49-.617-.964-1.25-1.46-1.86a4 4 0 0 0-.137-.183 14 14 0 0 1-1.946-3.286c-.019-.037-.026-.08-.047-.116-.109-.277-.22-.576-.209-.853m-8.692-.12c0-.053.004-.103.004-.153.003-.044 0-.09.012-.123.225-.8.193-1.615.213-2.43 0-.05-.004-.103-.004-.145q-.001-.081 0-.147-.002-.073.007-.142c.088-.6.193-1.188.288-1.785.042-.295.086-.596.132-.89.05-.309.096-.614.14-.934.093.028.202.066.299.101.096.037.187.065.295.104-.021 1.207-.255 2.36-.464 3.525.025.008.055.014.083.03a.4.4 0 0 1 .075-.074.4.4 0 0 0 .069-.077c.1-.175.182-.361.266-.542.288-.646.511-1.317.718-1.99.051-.168.102-.33.164-.538.075.021.15.044.212.058.076.021.146.046.22.058-.016.138-.023.24-.051.34-.216.815-.415 1.63-.666 2.428-.109.387-.298.75-.472 1.105-.075.155-.165.302-.251.452-.09.144-.177.298-.256.45-.046.081-.025.197-.032.3.01.007.025.007.039.014.012 0 .033.007.04.016.234-.233.493-.452.687-.708.126-.187.263-.37.396-.543.464-.627.913-1.266 1.18-2.016.039.189.133.359.18.548-.141.741-.356 1.461-.82 2.094-.196.26-.419.537-.694.704-.62.377-1.282.699-2.002 1.086h-.003c.003-.075 0-.117-.004-.175m-7.35 1.63c.023-.147.033-.257.063-.366.11-.392.221-.77.33-1.163.11-.377.223-.771.332-1.15.014-.052.005-.101.014-.147.007-.072.021-.138.018-.21q-.043-.936-.099-1.876a3 3 0 0 0-.052-.436 3.7 3.7 0 0 1-.037-1.016c.033-.326.126-.654.293-.966.005-.024.012-.037.014-.054.018-.035.032-.061.046-.1.18-.459.18-.459.728-.464q-.067.3-.13.6c-.04.207-.082.4-.133.603a2 2 0 0 1-.058.212c-.047.162-.102.323-.133.482-.018.074.038.158.068.237.065-.027.151-.04.198-.084.07-.08.125-.176.172-.27.329-.626.652-1.258.984-1.884.007-.02.035-.043.052-.057.028-.046.065-.072.1-.104q.044-.023.074-.035a2 2 0 0 1 .293-.087c.109-.023.228-.044.374-.08-.304.567-.409 1.127-.828 1.534-.013.005-.02.02-.027.035a.4.4 0 0 0-.061.098q-.012.037-.028.07c-.181.43-.36.864-.522 1.302-.17.457-.32.932-.44 1.403 0 .007-.002.007-.002.017-.02.072-.023.151-.03.216.05.058.098.079.151.079h.005c.021 0 .042-.021.067-.035.02-.013.04-.013.058-.037.068-.086.116-.182.167-.277a1 1 0 0 0 .052-.144c.035-.089.069-.175.121-.255.264-.416.548-.813.75-1.27.148-.33.33-.642.514-.95.053-.093.12-.177.185-.261.072-.091.145-.193.214-.29.425-.625.86-1.257 1.267-1.895.148-.243.34-.394.655-.523-.05.208-.065.383-.126.537-.209.51-.425 1.018-.636 1.533-.21.515-.416 1.025-.637 1.537-.158.376-.35.739-.562 1.088a81 81 0 0 1-1.055 1.632c-.175.279-.347.549-.526.825-.11.16-.246.314-.376.468l-.104.093c-.015.012-.031.023-.033.044a2 2 0 0 0-.061.2 1 1 0 0 0-.022.148q-.001.057.025.08c.033.041.067.057.095.057.063 0 .123-.052.172-.11.028-.034.05-.063.075-.077.113-.104.22-.202.332-.298.293-.27.583-.541.853-.832.183-.195.358-.398.513-.622.525-.764 1.055-1.514 1.554-2.29.45-.694.862-1.412 1.288-2.125.005-.007.028-.014.044-.023.018-.003.025-.014.05-.028.033.394-.01.743-.155 1.074-.028.058-.056.126-.086.184a.6.6 0 0 0-.063.146c-.174.341-.292.718-.466 1.066-.112.233-.237.466-.349.701-.09.18-.188.358-.28.538-.141.261-.28.524-.436.77-.265.43-.646.779-.975 1.164-.033.044-.06.082-.093.116-.065.072-.133.143-.186.219a.4.4 0 0 0-.042.168c-.003.026-.003.058-.012.09.02-.004.042-.013.067-.013.312-.063 1-.471 1.339-.77.037-.036.079-.064.104-.1.19-.22.396-.444.596-.672.199-.215.387-.434.596-.667.008.072.008.143.015.212a1 1 0 0 1-.015.189.6.6 0 0 1-.048.179 14 14 0 0 1-.82 1.326c-.116.158-.307.273-.493.375q-.046.024-.079.044a9.9 9.9 0 0 1-2.54.946c-.051.008-.106.024-.151.038-.553.116-1.097.252-1.64.378a2 2 0 0 1-.202.029c-.014 0-.028.007-.044.007q-.085.01-.184.024m.52-10.438c.402-.115.776-.206 1.146-.32.393-.12.778-.28 1.171-.396q.177-.048.344-.128.387-.135.746-.338c.337-.198.68-.403 1.068-.629.093.256.168.454.233.65.047.14-.021.231-.126.303-.262.2-.532.401-.796.606-.495.361-1.002.718-1.578.951a5 5 0 0 1-.799.233 6 6 0 0 1-.84.097c-.782.033-1.57.105-2.355.122-.84.021-1.676 0-2.55-.007a9 9 0 0 0-.076-.459c-.018-.147-.039-.29-.046-.438-.042-.977-.061-1.963.021-2.951a.8.8 0 0 1 .051-.209c.01-.044.014-.096.028-.131a1 1 0 0 1 .213-.284c.686-.619 1.353-1.258 1.864-2.03.155-.232.362-.218.67-.227-.594.971-1.149 1.871-1.706 2.774-.105.175-.217.34-.32.51-.029.042-.038.06-.029.09.01.046.039.099.093.2.251-.112.46-.27.604-.503.51-.807 1.138-1.506 1.847-2.139.24-.208.477-.413.72-.616.06-.051.124-.097.182-.147.248-.19.495-.388.767-.547.064-.04.153-.047.225-.079.076-.019.14-.065.225-.077a28.3 28.3 0 0 0-3.51 4.236c-.35.503-.679 1.013-.998 1.533.128.145.203.072.28-.003.32-.344.647-.678.964-1.02.278-.305.548-.611.927-.811.192-.104.332-.308.497-.463.25-.247.5-.48.746-.725.402-.394.81-.764 1.19-1.17.481-.503.941-1.016 1.568-1.361.054-.03.116-.063.172-.088.026-.012.055-.005.12-.012.087.2.18.418.287.66-.479.18-.758.568-1.06.923-.764.896-1.559 1.754-2.491 2.48-.15.117-.272.255-.413.385q-.241.222-.477.452c-.16.143-.321.298-.483.445-.072.072-.116.115-.144.16-.05.078-.044.164-.01.374 1.448-.942 2.891-1.86 4.248-2.943q.68-.534 1.327-1.134c.162.458.299.843.443 1.244l-.144.146c-.02.014-.034.035-.051.049a2 2 0 0 0-.137.112c-.499.396-.975.827-1.522 1.146-.314.19-.618.408-.943.588a2.8 2.8 0 0 1-.65.284c-.177.046-.342.147-.51.226-.14.072-.216.182-.223.406m-6 12.1c0-.194.048-.322.13-.408a.5.5 0 0 1 .257-.138 5.6 5.6 0 0 0 1.104-.342c.094-.035.181-.064.267-.108.316-.13.634-.27.943-.4.27-.108.528-.247.837-.394-.047.265-.138.48-.256.692-.067.116-.132.24-.22.356-.038.05-.117.08-.2.11-.038.005-.082.02-.12.028-.747.184-1.498.358-2.253.533-.15.037-.31.05-.49.072m-2.267-7.438c.028-.392.133-.727.388-1.018.061-.066.12-.14.198-.2.216-.16.416-.346.622-.534.339-.29.665-.595.997-.895a.57.57 0 0 1 .305-.154c-.068.184-.117.373-.212.54-.536.998-.874 2.06-1.224 3.125-.084.256-.154.518-.217.77a.3.3 0 0 0 .014.129c0 .003.007.012.007.012.014.045.028.086.042.138a.8.8 0 0 0 .3-.284c.082-.131.14-.275.204-.4.212-.423.345-.875.554-1.287.202-.387.44-.75.7-1.1.152-.207.306-.413.487-.608a.33.33 0 0 1 .17-.096c.341-.058.682-.098 1.075-.154-.11.29-.267.504-.429.699a15 15 0 0 0-2.02 3.31 7 7 0 0 0-.418 1.285q-.153.626-.328 1.244c-.039.138-.107.277.12.4.071-.123.147-.24.204-.369.28-.618.518-1.258.854-1.857.337-.602.758-1.152 1.158-1.724.211-.3.423-.602.646-.897.411-.562.841-1.117 1.343-1.608q.068-.069.136-.147c.18-.247.372-.363.607-.392.235-.021.516.043.883.145-.065.13-.105.272-.188.373-.288.363-.58.719-.867 1.081a65 65 0 0 0-1.63 2.059 46 46 0 0 1-1.55 1.925c-.027.044-.038.094-.057.147-.021.05-.048.086-.06.14.481-.09.746-.482 1.092-.753.346-.268.68-.559 1.015-.841.349-.298.709-.57 1.035-.886.311-.309.58-.657.868-.99.175.317.166.602-.058.851-.251.277-.525.538-.78.815-.246.275-.476.57-.742.834-.078.071-.153.145-.236.217-.235.212-.475.417-.712.627-.044.044-.076.095-.134.16.327.154.594.071.846-.092.529-.359 1.054-.73 1.582-1.091.072-.054.148-.11.25-.175.013.194.008.354-.074.492a.6.6 0 0 1-.169.191c-.778.559-1.55 1.133-2.324 1.706a.7.7 0 0 1-.214.102c-1.052.27-2.102.533-3.153.8-.056.025-.123.037-.183.051-.05.007-.103.018-.177.021-.025-.085-.063-.175-.076-.26-.054-.38-.096-.749-.147-1.125-.044-.375-.097-.736-.148-1.106-.052-.373-.1-.744-.161-1.116-.13-.746-.062-1.489-.014-2.23m-1.666 2.39c.042-.426.133-.813.295-1.095v.005-.005c.014.06.026.094.035.131l.03.118c.003.026.014.064.017.09.069.477.134.955.206 1.435.068.48.137.95.196 1.43a.56.56 0 0 1-.005.286c-.033.117-.123.18-.35.275-.356-.59-.519-1.73-.424-2.67m.133-3.103c.018-.198.025-.401.058-.604.183-.98.392-1.96.741-2.908.083-.232.198-.352.439-.393.058-.007.125-.02.186-.035.104-.023.202-.052.325-.073v-.007c-.253.828-.759 1.492-1.057 2.261.19.021.255-.11.337-.205.583-.692 1.157-1.387 1.745-2.076.133-.16.32-.276.474-.424.163-.154.321-.311.47-.48.051-.05.095-.115.141-.187.037-.058.084-.14.139-.22v.008-.007c.075.194.11.38.124.543a3 3 0 0 1-.003.445c-.004.053-.042.093-.086.147q-.004.002-.007.004c-.051.056-.107.101-.158.147l-.602.524c-.3.26-.597.53-.88.814-.342.328-.655.683-.957 1.048-.296.371-.583.74-.863 1.128a2.6 2.6 0 0 1-.34.368c-.068.06-.14.123-.226.182m5.061-9.372c.072.015.155.007.31.015a9 9 0 0 1-1.13 1.537 14 14 0 0 1-2.138 1.922c-.128.096-.265.171-.402.248a7.6 7.6 0 0 1-1.072.468c-.15.05-.295.098-.446.156-.035.01-.074-.003-.14-.003.04-.102.07-.19.105-.27.291-.59.583-1.181.874-1.763.388-.791.781-1.573 1.187-2.361.14-.272.291-.536.461-.799.046-.065.09-.124.136-.19.179-.244.38-.477.621-.682-.091.56-.003 1.135-.347 1.657-.137.21-.26.422-.387.632-.231.379-.465.755-.69 1.142-.12.197-.233.4-.358.596-.045.074-.098.138-.145.21-.058.074-.108.154-.165.233-.044.065-.106.14-.148.212-.042.06-.093.132-.107.204-.009.075.021.154.133.248.1-.101.208-.2.295-.303.086-.115.176-.217.265-.315.562-.678 1.201-1.268 1.882-1.834.093-.08.176-.176.27-.254.166-.155.338-.298.482-.465.18-.219.374-.318.654-.241m9.77-3.607c-.295.096-.504.168-.71.234-.292.086-.594.158-.882.261q-.053.018-.107.037c-.257.103-.516.175-.775.266a18.4 18.4 0 0 1-2.752.754c-.623.117-1.233.238-1.852.326-.62.092-1.241.159-1.875.166-.248 0-.502-.028-.806-.044.044-.168.072-.32.107-.475.037-.164.072-.322.116-.483.137-.445.305-.887.448-1.333.056-.19.131-.354.224-.515.274-.49.671-.88 1.059-1.288q.006-.009.037-.007h.082l-.163.415q-.18.413-.337.829c-.009.012.042.058.086.117.039-.031.065-.06.1-.09a1 1 0 0 0 .098-.078c.499-.464.985-.937 1.49-1.396.204-.188.441-.286.684-.333.035-.01.066-.03.1-.03.282-.05.58-.044.881-.044-.525.379-1.053.74-1.522 1.183a6 6 0 0 0-.435.466c-.548.67-1.119 1.32-1.684 1.978.165.082.26.115.34.112.08-.012.145-.058.232-.161.148-.16.288-.328.434-.48.098-.11.195-.21.304-.314.247-.208.535-.392.82-.553.549-.326 1.11-.64 1.676-.93.186-.094.388-.158.58-.234q.301-.109.596-.189c.206-.058.4-.116.611-.15.067-.015.13-.015.188-.015.25-.008.462.086.658.305-.068.067-.12.139-.191.19q-.367.225-.728.44c-.25.155-.489.31-.733.451-.553.33-1.11.634-1.666.946-.138.075-.291.126-.437.184-.072.028-.145.065-.18.124a.15.15 0 0 0-.004.13c.054.14.172.086.274.05.593-.18 1.2-.355 1.789-.565.532-.198 1.053-.438 1.578-.664.339-.152.669-.328 1.006-.483a.6.6 0 0 1 .188-.069c.007 0 .02.009.024.009.055 0 .11.014.16.063.27.275.539.545.869.887m6.092 5.322c.014.11.061.184.107.226l.04.036c.08.146.176.293.251.437.292.618.164 1.156-.19 1.7a7 7 0 0 1-.431.598c-.26.33-.537.64-.874.9-.04.03-.097.067-.12.111-.028.044-.031.086.018.145.026.028.084.035.14.035.04 0 .08 0 .105-.014.176-.108.357-.21.525-.32l.097-.061c.126-.076.246-.163.367-.251-.014.032-.025.035-.039.063-.065.177-.12.336-.177.498-.158.408-.169.853-.283 1.263a9.3 9.3 0 0 1-1.47-.466c-.219-.084-.433-.177-.652-.26-.077-.035-.15-.071-.228-.11-.114-.056-.23-.116-.351-.158a1.8 1.8 0 0 1-.511-.262 4.7 4.7 0 0 1-.72-.668c-.077-.087-.163-.17-.24-.263-.074-.082-.148-.16-.208-.247a1.4 1.4 0 0 1-.154-.313c-.013-.046-.028-.08-.042-.118-.076-.259-.148-.523-.22-.777q-.164-.563-.332-1.118c-.075-.256-.147-.512-.233-.755a8 8 0 0 0-.316-.789q-.073-.181-.158-.376l-.31-.685c-.18-.43-.354-.857-.533-1.279v-.007c.311-.175.81-.357 1.306-.496.47-.122.947-.219 1.26-.219l-.317.577c-.105.19-.22.378-.316.574-.13.27-.175.999-.105 1.346.26-.197.267-.522.47-.722.099-.104.185-.203.28-.32.013-.02.034-.034.049-.062.089-.112.172-.22.263-.32.196-.227.404-.433.625-.665.184.102.35.198.548.307l-.343.997q-.087.258-.186.522c-.061.182-.123.357-.17.53-.195.686-.367 1.376-.54 2.06-.029.137-.01.295.029.455.586-.479.925-1.118 1.296-1.745.373-.63.705-1.28.909-1.99.442.16.493.23.428.646-.14.893-.277 1.796-.439 2.693-.01.042-.028.093-.038.136-.04.158-.095.317-.185.449-.284.452-.507.948-.946 1.29a.43.43 0 0 0-.128.152c-.016.03-.02.071-.033.115a.16.16 0 0 0 .061.051c.13.135.292.06.439.005.63-.257 1.217-.58 1.68-1.103.069-.081.169-.132.277-.19q.07-.03.148-.071c.021-.19.075-.354.144-.53.165-.416.428-.8.655-1.222.007.014.007.03.02.035m2.314 2.713c-.03.118-.069.24-.095.356-.032.117-.055.24-.093.357-.388 1.064-.457 2.17-.504 3.275-.014.317-.028.627-.044.95-.032.458.072.914.112 1.38a.3.3 0 0 0 .062.02c.02.008.042.016.058.016.079-.11.203-.227.226-.348.053-.24.09-.478.125-.726.04-.234.075-.478.126-.71.123-.556.244-1.117.457-1.63.447-1.102.953-2.185 1.44-3.267.06-.13.143-.247.236-.408.106.045.199.082.292.117q.142.068.295.124v.006c-.115.285-.21.51-.295.735-.374.924-.734 1.86-.985 2.823a10 10 0 0 0-.199.828c-.007.051.01.104.018.15.007.055.009.097.012.148.046.007.08.025.118.037.806-1.454 1.583-2.933 2.63-4.276.15.05.277.103.417.147.134.047.278.105.417.15-.234.391-.457.77-.68 1.143-.216.38-.428.742-.64 1.105-.434.732-.849 1.475-1.277 2.21q-.056.084-.123.166c-.045.052-.079.103-.128.159-.044.054-.091.103-.13.161-.71.904-1.464 1.777-1.93 2.843-.024.05-.068.102-.103.155-.04.05-.079.11-.133.166l-.158.187c-.45-1.058-.892-1.991-1.23-2.964-.155-.422-.155-.926-.13-1.389.064-1.501.698-2.8 1.5-4.027a1.5 1.5 0 0 1 .148-.212c.047-.072.1-.144.15-.212.052.112.052.184.038.255m16.877-6.441c-.569.31-1.153.625-1.729.93-.31.168-.63.328-.95.485-.17.083-.339.186-.514.27-.35.182-.702.364-1.038.576-.316.202-.625.42-.934.626-.45.312-.904.62-1.353.93-.313.224-.622.443-.94.662-.045.03-.096.056-.147.088a2 2 0 0 1-.45.219 7 7 0 0 1-.445.086c-.172.02-.334.043-.5.072-.464.075-.927.12-1.389.089a2.7 2.7 0 0 1-.788-.154c-.172-.065-.355-.104-.529-.147-.117-.028-.233-.05-.345-.086a24 24 0 0 0-.948-.284c-.894-.272-1.786-.54-2.606-1.016-.24-.147-.518-.212-.777-.323-.137-.05-.265-.1-.429-.168.774-1.177 1.35-2.442 2.526-3.316.036-.026.062-.058.097-.077.044.413.072.785.126 1.139.014.113.025.23.048.329.068.27.15.529.24.792.018.052.035.101.048.156q.15.409.298.814a.3.3 0 0 0 .097.105c.065.053.14.097.188.09.11-.021.144-.076.154-.147.007-.065-.016-.144-.033-.22-.14-.584-.169-1.178-.155-1.763.004-.35.014-.692.048-1.045.103-.904.446-1.611 1.306-2.023.354-.17.658-.43 1.122-.445-.13.666-.181 1.33-.37 1.927a2.7 2.7 0 0 1-.317.704c.032.083.067.144.097.21.072.162.14.307.14.453.035.991.392 1.862.857 2.704.11.19.223.412.491.384.037 0 .065.009.099-.003.031-.058.066-.104.075-.162a.7.7 0 0 0 0-.276c-.188-.764.014-1.5.104-2.248.024-.223.1-.452.202-.66.024-.067.045-.127.079-.191a191 191 0 0 1 1.917-3.338c.295-.51.417-.545 1.05-.326-.413.959-.629 1.964-.787 2.996-.151 1.01-.342 2.008-.126 3.055.186-.14.342-.292.431-.476.429-.906.848-1.817 1.245-2.733.107-.237.191-.487.281-.732.086-.25.172-.505.262-.752.166-.45.338-.902.517-1.38v-.007c.311.057.583.101.875.152.033.45.079.867.091 1.274.007.194 0 .394 0 .587v.126c0 .203 0 .392.028.588.04.4-.24.762-.123 1.214.381-.318.983-1.163 1.076-1.576.072-.3.113-.603.165-.911.051-.305.11-.596.162-.91.346.288.785.8 1.181 1.36.43.59.813 1.23 1 1.703m.48 2.37c.38.918.424 1.896.503 2.87.065.788.18 1.564.272 2.342.055.489.116.974.174 1.454.042.319.014.67.134.948.24.56.261 1.131.295 1.713.042.664.096 1.323.144 1.978.014.154.035.305.312.264.107-.862.202-1.718.263-2.582.215-2.582.218-5.154-.077-7.759.077.095.12.19.177.29.055.088.14.183.176.285.154.415.256.846.35 1.279.027.108.054.21.075.32.086.436.161.878.237 1.31.22 1.33.284 2.66.126 3.998-.04.379.04.734.22 1.069.15-.058.23-.09.267-.123.045-.028.049-.057.06-.13.04-.278.064-.562.101-.84.191-1.49.388-2.971.593-4.555.329.284.573.45.536.832-.132 1.312.037 2.605.235 3.893.028.18.021.341-.02.495h.004c-.014.058-.06.107-.082.165-.039.095-.065.191-.13.277-.79 1.156-1.69 2.221-2.618 3.265a5 5 0 0 1-.439.437c-.156.136-.314.276-.486.438-.96-.773-1.903-1.493-2.805-2.255-.846-.722-1.642-1.498-2.472-2.234a8 8 0 0 1-.836-.85 6 6 0 0 1-.668-.96c-.429-.765-.67-1.599-.882-2.443-.117-.449-.226-.911-.344-1.358-.04-.175-.037-.343.139-.452.253-.15.507-.306.832-.5.223.58.418 1.108.618 1.628.14.363.31.712.507 1.037.09.155.17.302.27.445.33.473.612.987.933 1.47.302.457.632.888.974 1.365.188-.244.206-.436.114-.638-.114-.243-.207-.489-.361-.699a4.4 4.4 0 0 1-.455-.897c-.197-.485-.337-.993-.518-1.475-.312-.837-.453-1.729-.644-2.608l-.053-.24c-.01-.037-.01-.072-.01-.11a4 4 0 0 1-.027-.283c.515-.313 1.004-.611 1.59-.972.113.816.264 1.627.443 2.425.529 2.386 1.3 4.674 2.047 6.998.227-.206.302-.29.32-.425a1.3 1.3 0 0 0-.014-.296c-.046-.312-.086-.619-.13-.925a42 42 0 0 0-.128-.924c-.034-.26-.051-.524-.11-.78-.37-1.618-.487-3.279-.524-4.934-.014-.656.02-1.314-.34-1.95.333-.167.624-.326.895-.471.071.064.11.085.131.117.04.086.072.175.106.261m10.63.962c-.155.615-.382 1.22-.447 1.86-.15.412-.298.827-.47 1.235-.088.22-.188.43-.3.642-.097.192-.204.395-.302.607-.351-.247-.646-.446-.917-.665a20 20 0 0 1-1.913-1.843c-.594-.645-1.162-1.323-1.738-2.008-.878-1.023-1.645-2.121-2.356-3.26-.198-.33-.421-.64-.61-.986-.027-.04-.064-.085-.085-.13-.227-.37-.492-.713-.734-1.074-.169-.254-.334-.51-.572-.88.661-.073 1.202-.147 1.741-.204.098-.007.17.019.234.073a.1.1 0 0 1 .03.021c.06.06.11.144.154.233.226.473.432.951.669 1.425.367.71.73 1.438 1.14 2.125.457.755.972 1.473 1.458 2.209.086.131.165.29.348.182a.21.21 0 0 0 .112-.154c.014-.086-.033-.188-.093-.282-.105-.197-.228-.388-.31-.598a92 92 0 0 1-.986-2.501c-.14-.386-.27-.763-.404-1.146-.133-.38-.272-.757-.405-1.142-.037-.11-.023-.24-.037-.372.407-.066.723.021.99.247.065.05.13.107.197.182.188.233.36.472.534.71.172.233.326.482.48.736.148.255.304.5.429.772.37.82.692 1.663 1.015 2.505.165.433.324.882.403 1.334.032.205.042.404.06.613.016.301.026.608.044.913.01.19.032.296.112.38.08.077.22.122.47.18-.034-1.23-.075-2.442-.082-3.66a8 8 0 0 0-.068-.907c-.12-.895-.378-1.759-.615-2.647.33.27.662.532.934.83.03.037.051.086.083.123.216.277.386.587.447.981.143.946.262 1.899.395 2.845l.036.18c.005.065.015.118.03.183.103-.021.194-.021.201-.055.128-.39.251-.799.367-1.205.065-.194.125-.385.19-.603.037.039.068.058.093.08q.033.025.037.038c.044.632.054 1.258.01 1.878m.463 6.98c-.004.106-.014.215-.021.325-.05.435-.123.866-.21 1.293a180 180 0 0 1-.791 3.637q-.31 1.349-.61 2.713c-.033.118-.076.237-.122.375-.077-.05-.14-.071-.16-.11q-.175-.28-.35-.566c-.285-.471-.552-.96-.765-1.47a6 6 0 0 1-.219-.623c-.356-1.307-.55-2.647-.63-4.003-.05-.87-.014-1.726.13-2.688.17.128.252.205.353.247.37.17.49.452.503.853.007.31.065.624.111.93.03.174.033.356.068.532.243 1.214.418 2.428.443 3.671 0 .191.005.393.003.587-.003.193.034.393.058.582.206.01.31-.058.357-.145.054-.092.061-.22.072-.32.01-.12.014-.246.024-.369.005-.124.016-.261.023-.392.01-.125.014-.25.028-.365.044-.33.097-.646.144-.972.093-.618.174-1.247.256-1.86.046-.346.104-.687.137-1.029.083-.888.697-1.445 1.096-2.146v.007c.084.436.098.867.072 1.305m20.4 2.984c.229.134.401.293.556.475.093.102.186.209.26.324.038.06.038.147.03.23 0 .042-.006.086-.01.12q-.123 1.157-.266 2.297c-.014.155-.062.307-.097.49h-.003c-.181-.074-.285-.16-.34-.27q-.061-.12-.041-.284c.056-.388.066-.768.056-1.155-.004-.095-.004-.19-.01-.284-.015-.343-.04-.681-.052-1.026-.02-.291-.052-.571-.082-.917m-.524-2.666q-.483-.359-.981-.704c-.034-.032-.086-.046-.123-.067-.062-.028-.127-.068-.195-.087a88 88 0 0 0-1.794-.547 3 3 0 0 0-.432-.102 4 4 0 0 1-.971-.31 2.8 2.8 0 0 1-.816-.606c-.013-.014-.023-.028-.04-.044q-.038-.029-.08-.071c-.367-.321-.367-.321-.191-.845.18.118.35.226.525.335q.267.153.523.327c.06.039.121.08.176.132.136.094.266.198.41.292.062.035.165.014.251.014-.007-.071.01-.154-.02-.219a1 1 0 0 0-.189-.247c-.48-.523-.963-1.038-1.437-1.57-.013-.024-.027-.043-.04-.073a.3.3 0 0 1-.052-.13.2.2 0 0 1-.02-.073q0-.153.027-.307c.01-.108.03-.233.048-.378.432.473.918.773 1.155 1.3.003.017.017.024.028.038.02.032.044.065.068.09.018.019.037.031.058.047.343.32.694.636 1.05.939.38.314.767.618 1.176.895q.005-.002.006.007c.066.037.138.076.196.102.072-.039.11-.072.127-.116 0 0 .007 0 .007-.007.003-.02-.01-.05-.014-.075-.01-.021 0-.04-.018-.072a2 2 0 0 0-.202-.245q-.054-.048-.112-.104a1.2 1.2 0 0 1-.204-.194c-.303-.387-.583-.797-.939-1.146-.256-.243-.486-.522-.72-.802a3 3 0 0 1-.184-.265c-.065-.094-.128-.196-.197-.29-.447-.619-.89-1.244-1.357-1.842-.172-.22-.254-.453-.267-.799.181.127.34.198.459.309.412.37.82.748 1.234 1.118.409.373.823.742 1.225 1.117.302.286.58.584.832.906.406.506.79 1.03 1.187 1.549.191.26.391.515.586.777.12.158.213.332.316.507.02.042.03.087.048.126.01.02.017.045.035.056.05.037.112.079.17.124.05.028.09.058.134.074.031.007.056.014.079 0 .045-.016.079-.046.09-.074.024-.058-.011-.124-.048-.194-.021-.039-.042-.07-.051-.102a8 8 0 0 1-.165-.408 14 14 0 0 0-.488-1.084 6 6 0 0 0-.415-.698c-.535-.748-1.062-1.506-1.622-2.24-.496-.655-1.04-1.284-1.559-1.934-.007-.007-.007-.035-.007-.048-.003-.017-.007-.024-.007-.056.378.104.685.258.957.508.044.055.091.098.137.15.033.041.08.07.109.11.276.276.583.515.855.798.188.19.363.379.54.568q.21.217.41.45c.198.22.4.438.579.67.312.39.514.874.764 1.306q.037.07.072.132c.049.087.093.175.15.254a.4.4 0 0 0 .134.087q.048.022.086.044c.003-.014.003-.044.01-.065.046-.315-.101-1.096-.27-1.52a1 1 0 0 0-.058-.132 73 73 0 0 0-.426-.783c-.144-.264-.274-.517-.425-.793.079.017.137.036.202.06.066.019.12.048.175.076a.6.6 0 0 1 .155.114c.339.39.68.789.97 1.22.106.159.148.378.178.597.01.026.014.058.017.086.137.9.137 1.802.021 2.703-.01.05-.01.105-.014.152-.082.556-.137 1.116-.212 1.666a.7.7 0 0 1-.039.197.2.2 0 0 1-.007.043q-.016.086-.037.183a3 3 0 0 1-.33-.183q-.487-.359-.972-.704m-6.036 7.91c.06 0 .097.005.134.005.042.009.082.009.117.016.034 0 .069.01.1.01q.705.15 1.419.303c.467.104.943.197 1.413.3a.8.8 0 0 1 .263.1c.1.073.127.184.14.43-.673.13-1.802-.103-2.655-.516-.388-.182-.725-.401-.93-.648m-1.695-2.698a12 12 0 0 0-.294-.77c-.166-.414-.338-.823-.507-1.236a.63.63 0 0 1-.033-.342c.144.132.312.239.435.386.751.84 1.64 1.526 2.526 2.225.21.16.427.319.655.457q.047.03.118.031h.017q.065.005.144.004a.8.8 0 0 0-.165-.377c-.096-.122-.212-.226-.312-.324-.316-.345-.7-.629-1.015-.963a7 7 0 0 1-.795-1.032 5 5 0 0 1-.411-.668.3.3 0 0 1-.032-.187c.065-.336.14-.678.223-1.065h.004c.24.206.377.429.507.646a14.7 14.7 0 0 0 2.428 3.026c.328.315.681.58 1.066.828q.533.361 1.056.736c.12.079.23.195.425.02-.1-.107-.182-.218-.28-.31-.492-.482-1.008-.926-1.454-1.435-.453-.526-.83-1.108-1.233-1.677-.208-.307-.42-.611-.623-.918-.395-.58-.765-1.168-1.06-1.81a1 1 0 0 0-.091-.173c-.165-.265-.21-.471-.151-.704.054-.233.209-.475.435-.773.098.102.212.18.284.293q.36.594.72 1.184.673 1.127 1.375 2.23a49 49 0 0 1 1.3 2.116c.02.037.07.074.11.102.035.038.057.072.11.103.076-.48-.2-.862-.334-1.28-.133-.414-.298-.822-.445-1.237-.162-.426-.292-.864-.48-1.277-.186-.396-.425-.764-.639-1.151.362-.051.629.06.787.348.17.328.328.67.497 1.004.175.328.38.65.539.986q.06.147.115.304c.12.28.23.581.353.872.018.058.055.107.1.179.257-.254.27-.53.199-.82-.151-.617-.323-1.237-.483-1.855-.025-.086-.053-.18-.083-.295.188.048.34.114.443.235q.08.09.123.219c.258.93.542 1.848.809 2.771q.037.11.025.232a503 503 0 0 1-.344 3.42c-.004.048-.016.103-.034.175-.096 0-.19 0-.274-.015q-.556-.133-1.107-.255l-1.09-.24c-.371-.072-.738-.161-1.105-.226-.755-.137-1.427-.452-2.115-.759-.357-.149-.64-.368-.82-.702a2 2 0 0 1-.12-.256m-3.917-3.416v-.007c.202 0 .384.028.551.072.146.045.286.092.416.16.044.015.076.073.102.125 0 .004.007.004.007.01q.048.099.083.202.149.368.294.74c.144.367.285.74.46 1.103.195.43.418.853.662 1.26.24.408.5.797.764 1.19.093.13.165.285.233.446.032.087.069.173.093.277-.179-.09-.366-.161-.546-.263-.867-.505-1.72-1.04-2.489-1.687-.188-.158-.267-.312-.216-.545q.02-.087.028-.196.02-.144.037-.328c.694.524 1.143 1.223 1.763 1.773.09-.177-.01-.28-.072-.394-.451-.783-.911-1.561-1.36-2.346-.104-.182-.152-.392-.238-.588-.09-.205-.18-.41-.288-.603-.033-.068-.082-.13-.133-.2-.04-.06-.097-.13-.151-.208zm-3.48-12.77c-.01.314-.02.524-.028.743-.02.305-.054.61-.054.918 0 .037-.004.077-.004.116.01.27-.014.536-.014.814a19 19 0 0 1-.23 2.844 56 56 0 0 1-.328 1.848 13 13 0 0 1-.491 1.806c-.083.242-.188.464-.308.743-.142-.095-.275-.175-.405-.256-.144-.096-.285-.179-.422-.284-.349-.26-.686-.543-1.032-.813-.068-.893-.133-1.737-.133-2.342-.018-.193-.014-.38-.028-.573.054.121.114.247.186.363.432.736.853 1.493 1.281 2.248.127-.125.199-.205.22-.286.02-.072-.007-.152-.072-.27-.104-.189-.202-.375-.306-.57-.065-.127-.133-.257-.187-.386-.122-.307-.18-.634-.241-.964a36 36 0 0 1-.305-1.887c-.016-.206-.016-.413-.016-.625 0-.207.001-.415.023-.618.017-.212.028-.423.061-.624q.021-.103.053-.186c.079-.236.238-.396.51-.506.044.079.095.158.116.24.055.277.115.557.169.834.058.284.123.562.174.846.117.622.216 1.25.32 1.875.024.16.02.318.024.478.007.082.01.152.05.205a.16.16 0 0 0 .124.052c.15 0 .137-.13.14-.243.028-.615.08-1.242.08-1.864 0-.568-.041-1.137-.083-1.714-.027-.36-.08-.739-.113-1.103a.5.5 0 0 1 .007-.196c0-.01.01-.014.01-.023.017-.058.052-.1.12-.13.346-.161.697-.31 1.132-.51m1.228 11.692c.445.852.823 1.738 1.083 2.663.044.154.075.302.096.464.058.386.076.78.072 1.172q.002.231-.007.465c0 .036-.02.063-.054.12a2 2 0 0 1-.21-.185c-.456-.473-.908-.946-1.365-1.417a104 104 0 0 1-1.81-1.92 9 9 0 0 1-.597-.708 1.4 1.4 0 0 1-.133-.195 3.6 3.6 0 0 1-.432-.814c.493.275 1.07.392 1.447.893.143.198.301.386.452.578.285.349.559.698.843 1.037q.222.273.443.536c.05.069.096.14.147.212.05.08.11.155.161.233q.067.115.148.21c.04.065.093.13.154.169.069.035.155.035.278-.039-.062-.13-.107-.26-.181-.376-.075-.118-.142-.237-.214-.354-.44-.766-.778-1.57-1.073-2.395-.037-.116-.102-.224-.15-.34-.09-.205-.162-.417-.271-.611-.14-.246-.172-.458-.007-.698.04-.057.065-.14.12-.276a8.7 8.7 0 0 1 1.06 1.576m.133-6.91c.769 1.676 1.712 3.245 2.78 4.736q.537.743 1.108 1.463c.181-.072.144-.175.094-.268-.215-.417-.417-.837-.636-1.253-.195-.36-.386-.72-.45-1.147-.03-.214-.166-.417-.26-.624-.143-.315-.284-.625-.428-.947-.23-.508-.445-1.027-.697-1.52-.307-.618-.633-1.23-.742-1.926-.007-.065-.021-.13-.028-.198 0-.028.014-.05.033-.118.223-.012.46-.019.722-.04.008.517.274.899.504 1.307.586 1.02 1.116 2.067 1.486 3.183.06.184.14.35.216.517.09.207.176.403.258.604.09.205.174.408.264.613.042.084.065.142.1.186.061.067.133.098.342.142-.386-1.684-.76-3.355-1.306-4.998a24 24 0 0 0-.623-1.63c.486 0 .897.011 1.324.011l.084.18a.2.2 0 0 1 .031.072q.03.08.062.169c.202.595.442 1.193.558 1.81.069.36.172.721.227 1.082.045.242.068.475.052.715-.02.18.016.368.037.557.018.154.097.26.302.345.035-.419.076-.794.093-1.186.02-.408 0-.823.026-1.23a2.5 2.5 0 0 0 0-.363 5 5 0 0 0-.068-.814c-.072-.394-.14-.78-.223-1.221.272 0 .481 0 .69.007.147 0 .212.096.25.215.096.323.192.638.292.953.178.59.336 1.185.36 1.803a4.7 4.7 0 0 1-.063.83 5 5 0 0 1-.195.82c-.233.745-.435 1.507-.686 2.257-.267.793-.576 1.568-.878 2.384-.16-.033-.307-.058-.451-.088a4 4 0 0 1-.428-.1c-.945-.3-1.877-.62-2.781-1.026-.072-.04-.125-.086-.183-.123-.035-.031-.079-.045-.109-.072a.9.9 0 0 1-.193-.297c-.35-.855-.72-1.698-1.278-2.446-.161-.224-.079-.415.02-.706.703.89 1.365 1.717 2.027 2.554.127.16.239.32.367.47.03.038.051.06.084.06.035.008.097-.004.211-.022a1.36 1.36 0 0 0-.258-.735c-.59-.757-1.029-1.584-1.385-2.47q-.173-.436-.336-.873a7 7 0 0 1-.075-.226c-.097-.3-.197-.596-.255-.911-.017-.072.004-.158.004-.231 0-.086-.018-.15.007-.237m11.446-7.485c-.075.1-.135.175-.193.261-.123.154-.267.305-.36.475-.323.585-.764 1.08-1.213 1.571-.158.162-.312.337-.467.507-.05.063-.116.12-.18.18a4 4 0 0 0-.266.277 1.8 1.8 0 0 1-.421.387c-.267.19-.573.326-.881.456-.111.036-.216.089-.327.133a3 3 0 0 1-.304.11c-.11.026-.23.032-.354.032h-.116c-.27-.02-.546-.042-.813-.058-.392-.026-.774-.046-1.162-.07-.267-.014-.532-.035-.795-.044a9 9 0 0 0-.845.03l-.404.02c-.258.022-.503.045-.762.052-.461.028-.925.045-1.388.064h-.004c-.054-.355-.054-.879-.012-1.396.037-.485.116-.958.223-1.258.144.17.291.328.428.496.144.168.288.342.436.492.209.218.881.51 1.23.561-.096-.312-.405-.434-.518-.692-.057-.12-.133-.238-.201-.36-.014-.022-.029-.052-.046-.073-.072-.124-.148-.24-.22-.355-.133-.265-.256-.526-.403-.815.158-.13.305-.265.475-.408.285.222.553.44.827.652.144.126.285.241.429.359q.216.184.439.348c.575.407 1.162.806 1.748 1.199.125.08.276.117.442.138-.252-.711-.737-1.25-1.195-1.81-.47-.567-.97-1.105-1.571-1.536.302-.363.391-.384.755-.188.795.445 1.594.883 2.385 1.337.043.023.08.053.118.08.137.095.267.206.367.337.321.412.716.792.88 1.323.02.058.06.115.1.164.024.039.064.053.103.074.026-.005.044-.021.065-.028.17-.09.158-.265.155-.412-.022-.685-.132-1.349-.467-1.958a1 1 0 0 1-.076-.324 3 3 0 0 0-.025-.162 2.4 2.4 0 0 1-.447-.315c-.33-.298-.604-.673-.924-1.037.281-.16.56-.112.834-.14.68-.065 1.145.24 1.536.755.155.198.285.408.411.611.227.36.425.727.553 1.134.012.05.03.103.062.145.026.039.075.06.144.032.03-.016.061-.067.082-.12a.3.3 0 0 0 .023-.106c-.044-.195-.08-.403-.123-.603-.003-.037-.018-.065-.025-.102a6 6 0 0 0-.144-.574c-.022-.067-.061-.147-.09-.214-.097-.235-.217-.468-.338-.74.028 0 .053.008.086.008 1.036.11 1.845.66 2.744 1.098m4.768 7.169c-.072-.023-.116-.035-.167-.058-.049-.016-.1-.037-.14-.05-.042-.024-.086-.038-.118-.06-.676-.48-1.453-.726-2.219-1.027-.037-.012-.088-.033-.133-.047q-.07-.022-.137-.044c-.048-.025-.09-.039-.134-.06-.531-.283-1.053-.588-1.576-.879a86 86 0 0 1-.8-.438c-.27-.142-.541-.289-.826-.44.058-.082.134-.168.195-.243.065-.086.127-.158.195-.247 1.132.438 2.144 1.046 3.158 1.643.025-.021.042-.05.058-.072-.009-.03-.03-.058-.037-.087-.02-.037-.024-.074-.047-.095a6 6 0 0 0-.42-.434c-.51-.496-1.069-.93-1.63-1.353-.137-.112-.28-.212-.453-.345l.133-.177c.04-.058.086-.128.133-.187.115.06.21.112.295.163.694.49 1.396.953 2.065 1.454.32.24.597.536.874.828q.176.188.335.387c.118.137.223.267.341.4.065.065.177.086.27.13a.2.2 0 0 1 .028-.034l.027-.038c-.144-.291-.253-.612-.436-.882q-.189-.278-.37-.558c-.439-.654-.885-1.295-1.508-1.803-.065-.058-.123-.123-.183-.182q-.096-.096-.187-.18a.26.26 0 0 1-.072-.169v-.007c.05.028.112.05.168.079.058.021.112.044.17.075.938.454 1.795 1.01 2.384 1.896.181.277.364.58.425.897.148.711.223 1.436.34 2.244"/><path stroke="#003d32" stroke-linecap="square" d="M-11.5 26.5h837M929.5 26.5h847"/></g></svg>